<svg width="467" height="650" viewBox="0 0 467 650" fill="none" xmlns="http://www.w3.org/2000/svg">
<path d="M1440 -70H0V650H1440V-70Z" fill="#D9D9D9"/>
<path d="M0 20V-70H90L0 20Z" fill="#E0E0E0"/>
<path d="M0 290V200H90L0 290Z" fill="#E0E0E0"/>
<path d="M0 200V110H90L0 200Z" fill="#E0E0E0"/>
<path d="M0 560V470H90L0 560Z" fill="#E0E0E0"/>
<path d="M0 650V560H90L0 650Z" fill="#E0E0E0"/>
<path d="M450 650V560H540L450 650Z" fill="#E0E0E0"/>
<path d="M90 110V20H180L90 110Z" fill="#E0E0E0"/>
<path d="M90 290V200H180L90 290Z" fill="#E0E0E0"/>
<path d="M180 20V-70H270L180 20Z" fill="#E0E0E0"/>
<path d="M90 20V-70H180L90 20Z" fill="#E0E0E0"/>
<path d="M270 110V20H360L270 110Z" fill="#E0E0E0"/>
<path d="M180 110V290L360 110H180Z" fill="#E0E0E0"/>
<path d="M360 20V-70H450L360 20Z" fill="#E0E0E0"/>
<path d="M360 110V20H450L360 110Z" fill="#E0E0E0"/>
<path d="M360 290V200H450L360 290Z" fill="#E0E0E0"/>
<path d="M270 290V200H360L270 290Z" fill="#E0E0E0"/>
<path d="M360 470V380H450L360 470Z" fill="#E0E0E0"/>
<path d="M450 200V110H540L450 200Z" fill="#E0E0E0"/>
<path d="M360 470V650L540 470H360Z" fill="#E0E0E0"/>
<path d="M450 290V470L630 290H450Z" fill="#E0E0E0"/>
<path d="M90 380V650L360 380H90Z" fill="#E0E0E0"/>
</svg>
