<svg width="199" height="133" viewBox="0 0 199 133" fill="none" xmlns="http://www.w3.org/2000/svg">
<path d="M22.6 72.284C18.7333 72.8173 15.5333 73.084 13 73.084C12.1333 73.084 11.7 72.7507 11.7 72.084C11.7 70.5507 12.7333 68.9507 14.8 67.284C16.9333 65.5507 20.3667 64.0507 25.1 62.784C27.2333 55.184 29.6667 48.2173 32.4 41.884C25.7333 42.2173 20.2667 44.4173 16 48.484C14.9333 49.5507 14.0667 50.384 13.4 50.984C12.7333 51.584 12.1333 51.884 11.6 51.884C11.1333 51.884 10.6667 51.484 10.2 50.684C9.73333 49.884 9.5 48.8173 9.5 47.484C9.56667 42.3507 13.0333 38.184 19.9 34.984C26.7667 31.784 35.2333 30.2173 45.3 30.284L75.3 30.784C77.1 30.784 78 31.484 78 32.884C78 33.284 77.7333 34.0173 77.2 35.084C76.6667 36.084 76.2 37.184 75.8 38.384C74.9333 40.784 73.0667 41.984 70.2 41.984H67L53.7 41.884H46C45.4667 45.684 43.8667 51.884 41.2 60.484L59.5 60.784C60.5667 60.784 61.1 61.4173 61.1 62.684C61.1 63.084 60.9333 63.784 60.6 64.784C60.2667 65.784 59.9667 66.8173 59.7 67.884C59.1667 70.084 58.0333 71.184 56.3 71.184L41.1 70.484H39.8C39.4 70.484 38.9333 70.5173 38.4 70.584C34.9333 83.3173 33.2 93.384 33.2 100.784C33.2 104.717 29.3667 106.684 21.7 106.684C20.0333 106.684 19.0333 105.851 18.7 104.184C18.4333 102.451 18.3 100.184 18.3 97.384C18.3 91.384 19.7333 83.0173 22.6 72.284ZM80.0313 105.484C73.3646 105.484 70.0313 99.2507 70.0313 86.784C70.0313 79.984 70.8646 73.8173 72.5313 68.284C75.1313 59.7507 78.0646 55.484 81.3313 55.484C83.2646 55.484 84.7979 56.784 85.9313 59.384C86.8646 61.384 87.2979 63.3507 87.2313 65.284C87.2313 67.9507 86.4313 72.6507 84.8313 79.384C83.2979 85.2507 82.5313 88.884 82.5313 90.284C82.5313 91.684 82.8646 92.6507 83.5313 93.184C84.2646 93.7173 85.0979 93.984 86.0313 93.984C87.0313 93.984 88.2646 93.3507 89.7313 92.084C91.1979 90.8173 92.6646 89.4507 94.1313 87.984C95.5979 86.4507 96.9313 85.0507 98.1313 83.784C99.3979 82.5173 100.265 81.884 100.731 81.884C101.665 81.884 102.131 83.0173 102.131 85.284C102.131 89.9507 99.7646 94.5173 95.0313 98.984C90.3646 103.384 85.3646 105.551 80.0313 105.484ZM84.1313 47.384C82.3313 44.7173 81.4313 41.8507 81.4313 38.784C81.4313 35.7173 81.8979 33.184 82.8313 31.184C83.8313 29.1173 84.7646 27.6173 85.6313 26.684C86.4979 25.684 87.4979 25.184 88.6313 25.184C90.4979 25.184 92.1979 26.584 93.7313 29.384C95.2646 32.1173 96.0313 34.4173 96.0313 36.284C96.0313 39.7507 94.7979 42.484 92.3313 44.484C89.9313 46.4173 87.1979 47.384 84.1313 47.384ZM119.433 105.484C109.899 105.551 103.399 101.984 99.9328 94.784C98.7328 92.2507 98.1328 89.084 98.1328 85.284C98.1328 81.4173 98.4661 77.3173 99.1328 72.984C100.466 64.3173 103.033 56.3173 106.833 48.984C108.766 45.2507 110.933 42.0507 113.333 39.384C118.599 33.5173 124.466 30.6173 130.933 30.684C133.799 30.684 136.033 31.484 137.633 33.084C139.299 34.6173 140.133 36.8507 140.133 39.784C140.133 42.7173 139.266 45.684 137.533 48.684C135.799 51.6173 133.566 54.684 130.833 57.884C128.166 61.0173 125.199 64.3173 121.933 67.784C118.666 71.2507 115.466 75.0173 112.333 79.084V83.084C112.333 86.8173 113.133 89.5507 114.733 91.284C116.333 93.0173 118.199 93.884 120.333 93.884C126.066 93.884 131.133 91.0507 135.533 85.384C137.333 83.0507 138.699 81.884 139.633 81.884C140.566 81.884 141.033 83.0173 141.033 85.284C141.033 87.5507 140.399 89.884 139.133 92.284C137.933 94.6173 136.333 96.784 134.333 98.784C132.333 100.717 130.033 102.317 127.433 103.584C124.833 104.851 122.166 105.484 119.433 105.484ZM124.833 51.784C126.233 50.0507 127.333 48.484 128.133 47.084C128.933 45.684 129.333 44.2507 129.333 42.784C129.333 41.2507 128.799 40.484 127.733 40.484C125.399 40.484 122.799 42.884 119.933 47.684C117.133 52.484 115.033 58.784 113.633 66.584C115.899 63.1173 117.966 60.2173 119.833 57.884C121.766 55.5507 123.433 53.5173 124.833 51.784ZM162.021 97.884C158.688 102.484 154.221 104.784 148.621 104.784C144.088 104.784 140.454 103.851 137.721 101.984C135.054 100.051 133.721 97.0173 133.721 92.884C133.721 91.1507 133.954 89.5507 134.421 88.084C134.954 86.6173 135.788 84.8173 136.921 82.684L139.821 58.984C141.888 57.384 144.688 56.584 148.221 56.584C151.221 56.584 152.921 58.584 153.321 62.584C153.454 63.784 153.521 65.2173 153.521 66.884C153.521 68.484 153.254 70.184 152.721 71.984C150.054 81.184 148.754 87.3507 148.821 90.484C148.821 92.884 150.221 94.084 153.021 94.084C155.821 94.084 157.888 93.184 159.221 91.384C160.554 89.584 161.688 87.3507 162.621 84.684C164.354 77.284 165.954 71.184 167.421 66.384C168.954 61.584 169.921 58.7173 170.321 57.784C170.988 56.184 172.254 55.3507 174.121 55.284C175.988 55.3507 177.754 56.684 179.421 59.284C181.088 61.8173 181.921 63.784 181.921 65.184C181.788 69.8507 178.888 81.6173 173.221 100.484C177.554 97.084 181.854 92.9173 186.121 87.984C187.588 86.2507 188.821 84.8173 189.821 83.684C190.821 82.484 191.621 81.884 192.221 81.884C193.154 81.884 193.621 82.9507 193.621 85.084C193.621 89.284 191.254 94.184 186.521 99.784C181.854 105.384 176.121 109.751 169.321 112.884C168.521 115.551 167.654 118.084 166.721 120.484C165.788 122.884 164.588 124.984 163.121 126.784C159.921 130.651 155.054 132.584 148.521 132.584C144.121 132.584 140.354 131.317 137.221 128.784C134.154 126.251 132.621 123.084 132.621 119.284C132.621 117.151 133.321 115.451 134.721 114.184C136.188 112.917 138.154 111.851 140.621 110.984C143.154 110.184 146.088 109.451 149.421 108.784C152.754 108.184 156.321 107.417 160.121 106.484C161.054 102.484 161.688 99.6173 162.021 97.884ZM148.421 124.884C151.554 124.884 154.388 122.151 156.921 116.684C154.521 117.151 152.388 117.484 150.521 117.684C148.654 117.951 147.054 118.184 145.721 118.384C143.054 118.784 141.754 119.484 141.821 120.484C141.821 121.751 142.554 122.817 144.021 123.684C145.554 124.551 147.021 124.951 148.421 124.884Z" fill="#D62828"/>
<path d="M22.6 72.284C18.7333 72.8173 15.5333 73.084 13 73.084C12.1333 73.084 11.7 72.7507 11.7 72.084C11.7 70.5507 12.7333 68.9507 14.8 67.284C16.9333 65.5507 20.3667 64.0507 25.1 62.784C27.2333 55.184 29.6667 48.2173 32.4 41.884C25.7333 42.2173 20.2667 44.4173 16 48.484C14.9333 49.5507 14.0667 50.384 13.4 50.984C12.7333 51.584 12.1333 51.884 11.6 51.884C11.1333 51.884 10.6667 51.484 10.2 50.684C9.73333 49.884 9.5 48.8173 9.5 47.484C9.56667 42.3507 13.0333 38.184 19.9 34.984C26.7667 31.784 35.2333 30.2173 45.3 30.284L75.3 30.784C77.1 30.784 78 31.484 78 32.884C78 33.284 77.7333 34.0173 77.2 35.084C76.6667 36.084 76.2 37.184 75.8 38.384C74.9333 40.784 73.0667 41.984 70.2 41.984H67L53.7 41.884H46C45.4667 45.684 43.8667 51.884 41.2 60.484L59.5 60.784C60.5667 60.784 61.1 61.4173 61.1 62.684C61.1 63.084 60.9333 63.784 60.6 64.784C60.2667 65.784 59.9667 66.8173 59.7 67.884C59.1667 70.084 58.0333 71.184 56.3 71.184L41.1 70.484H39.8C39.4 70.484 38.9333 70.5173 38.4 70.584C34.9333 83.3173 33.2 93.384 33.2 100.784C33.2 104.717 29.3667 106.684 21.7 106.684C20.0333 106.684 19.0333 105.851 18.7 104.184C18.4333 102.451 18.3 100.184 18.3 97.384C18.3 91.384 19.7333 83.0173 22.6 72.284ZM80.0313 105.484C73.3646 105.484 70.0313 99.2507 70.0313 86.784C70.0313 79.984 70.8646 73.8173 72.5313 68.284C75.1313 59.7507 78.0646 55.484 81.3313 55.484C83.2646 55.484 84.7979 56.784 85.9313 59.384C86.8646 61.384 87.2979 63.3507 87.2313 65.284C87.2313 67.9507 86.4313 72.6507 84.8313 79.384C83.2979 85.2507 82.5313 88.884 82.5313 90.284C82.5313 91.684 82.8646 92.6507 83.5313 93.184C84.2646 93.7173 85.0979 93.984 86.0313 93.984C87.0313 93.984 88.2646 93.3507 89.7313 92.084C91.1979 90.8173 92.6646 89.4507 94.1313 87.984C95.5979 86.4507 96.9313 85.0507 98.1313 83.784C99.3979 82.5173 100.265 81.884 100.731 81.884C101.665 81.884 102.131 83.0173 102.131 85.284C102.131 89.9507 99.7646 94.5173 95.0313 98.984C90.3646 103.384 85.3646 105.551 80.0313 105.484ZM84.1313 47.384C82.3313 44.7173 81.4313 41.8507 81.4313 38.784C81.4313 35.7173 81.8979 33.184 82.8313 31.184C83.8313 29.1173 84.7646 27.6173 85.6313 26.684C86.4979 25.684 87.4979 25.184 88.6313 25.184C90.4979 25.184 92.1979 26.584 93.7313 29.384C95.2646 32.1173 96.0313 34.4173 96.0313 36.284C96.0313 39.7507 94.7979 42.484 92.3313 44.484C89.9313 46.4173 87.1979 47.384 84.1313 47.384ZM119.433 105.484C109.899 105.551 103.399 101.984 99.9328 94.784C98.7328 92.2507 98.1328 89.084 98.1328 85.284C98.1328 81.4173 98.4661 77.3173 99.1328 72.984C100.466 64.3173 103.033 56.3173 106.833 48.984C108.766 45.2507 110.933 42.0507 113.333 39.384C118.599 33.5173 124.466 30.6173 130.933 30.684C133.799 30.684 136.033 31.484 137.633 33.084C139.299 34.6173 140.133 36.8507 140.133 39.784C140.133 42.7173 139.266 45.684 137.533 48.684C135.799 51.6173 133.566 54.684 130.833 57.884C128.166 61.0173 125.199 64.3173 121.933 67.784C118.666 71.2507 115.466 75.0173 112.333 79.084V83.084C112.333 86.8173 113.133 89.5507 114.733 91.284C116.333 93.0173 118.199 93.884 120.333 93.884C126.066 93.884 131.133 91.0507 135.533 85.384C137.333 83.0507 138.699 81.884 139.633 81.884C140.566 81.884 141.033 83.0173 141.033 85.284C141.033 87.5507 140.399 89.884 139.133 92.284C137.933 94.6173 136.333 96.784 134.333 98.784C132.333 100.717 130.033 102.317 127.433 103.584C124.833 104.851 122.166 105.484 119.433 105.484ZM124.833 51.784C126.233 50.0507 127.333 48.484 128.133 47.084C128.933 45.684 129.333 44.2507 129.333 42.784C129.333 41.2507 128.799 40.484 127.733 40.484C125.399 40.484 122.799 42.884 119.933 47.684C117.133 52.484 115.033 58.784 113.633 66.584C115.899 63.1173 117.966 60.2173 119.833 57.884C121.766 55.5507 123.433 53.5173 124.833 51.784ZM162.021 97.884C158.688 102.484 154.221 104.784 148.621 104.784C144.088 104.784 140.454 103.851 137.721 101.984C135.054 100.051 133.721 97.0173 133.721 92.884C133.721 91.1507 133.954 89.5507 134.421 88.084C134.954 86.6173 135.788 84.8173 136.921 82.684L139.821 58.984C141.888 57.384 144.688 56.584 148.221 56.584C151.221 56.584 152.921 58.584 153.321 62.584C153.454 63.784 153.521 65.2173 153.521 66.884C153.521 68.484 153.254 70.184 152.721 71.984C150.054 81.184 148.754 87.3507 148.821 90.484C148.821 92.884 150.221 94.084 153.021 94.084C155.821 94.084 157.888 93.184 159.221 91.384C160.554 89.584 161.688 87.3507 162.621 84.684C164.354 77.284 165.954 71.184 167.421 66.384C168.954 61.584 169.921 58.7173 170.321 57.784C170.988 56.184 172.254 55.3507 174.121 55.284C175.988 55.3507 177.754 56.684 179.421 59.284C181.088 61.8173 181.921 63.784 181.921 65.184C181.788 69.8507 178.888 81.6173 173.221 100.484C177.554 97.084 181.854 92.9173 186.121 87.984C187.588 86.2507 188.821 84.8173 189.821 83.684C190.821 82.484 191.621 81.884 192.221 81.884C193.154 81.884 193.621 82.9507 193.621 85.084C193.621 89.284 191.254 94.184 186.521 99.784C181.854 105.384 176.121 109.751 169.321 112.884C168.521 115.551 167.654 118.084 166.721 120.484C165.788 122.884 164.588 124.984 163.121 126.784C159.921 130.651 155.054 132.584 148.521 132.584C144.121 132.584 140.354 131.317 137.221 128.784C134.154 126.251 132.621 123.084 132.621 119.284C132.621 117.151 133.321 115.451 134.721 114.184C136.188 112.917 138.154 111.851 140.621 110.984C143.154 110.184 146.088 109.451 149.421 108.784C152.754 108.184 156.321 107.417 160.121 106.484C161.054 102.484 161.688 99.6173 162.021 97.884ZM148.421 124.884C151.554 124.884 154.388 122.151 156.921 116.684C154.521 117.151 152.388 117.484 150.521 117.684C148.654 117.951 147.054 118.184 145.721 118.384C143.054 118.784 141.754 119.484 141.821 120.484C141.821 121.751 142.554 122.817 144.021 123.684C145.554 124.551 147.021 124.951 148.421 124.884Z" fill="#EAE2B7"/>
<path d="M14.6 70.1C10.7333 70.6333 7.53333 70.9 5 70.9C4.13333 70.9 3.7 70.5667 3.7 69.9C3.7 68.3667 4.73333 66.7667 6.8 65.1C8.93333 63.3667 12.3667 61.8667 17.1 60.6C19.2333 53 21.6667 46.0333 24.4 39.7C17.7333 40.0333 12.2667 42.2333 8 46.3C6.93333 47.3667 6.06667 48.2 5.4 48.8C4.73333 49.4 4.13333 49.7 3.6 49.7C3.13333 49.7 2.66667 49.3 2.2 48.5C1.73333 47.7 1.5 46.6333 1.5 45.3C1.56667 40.1667 5.03333 36 11.9 32.8C18.7667 29.6 27.2333 28.0333 37.3 28.1L67.3 28.6C69.1 28.6 70 29.3 70 30.7C70 31.1 69.7333 31.8333 69.2 32.9C68.6667 33.9 68.2 35 67.8 36.2C66.9333 38.6 65.0667 39.8 62.2 39.8H59L45.7 39.7H38C37.4667 43.5 35.8667 49.7 33.2 58.3L51.5 58.6C52.5667 58.6 53.1 59.2333 53.1 60.5C53.1 60.9 52.9333 61.6 52.6 62.6C52.2667 63.6 51.9667 64.6333 51.7 65.7C51.1667 67.9 50.0333 69 48.3 69L33.1 68.3H31.8C31.4 68.3 30.9333 68.3333 30.4 68.4C26.9333 81.1333 25.2 91.2 25.2 98.6C25.2 102.533 21.3667 104.5 13.7 104.5C12.0333 104.5 11.0333 103.667 10.7 102C10.4333 100.267 10.3 98 10.3 95.2C10.3 89.2 11.7333 80.8333 14.6 70.1ZM72.0313 103.3C65.3646 103.3 62.0313 97.0667 62.0313 84.6C62.0313 77.8 62.8646 71.6333 64.5313 66.1C67.1313 57.5667 70.0646 53.3 73.3313 53.3C75.2646 53.3 76.7979 54.6 77.9313 57.2C78.8646 59.2 79.2979 61.1667 79.2313 63.1C79.2313 65.7667 78.4313 70.4667 76.8313 77.2C75.2979 83.0667 74.5313 86.7 74.5313 88.1C74.5313 89.5 74.8646 90.4667 75.5313 91C76.2646 91.5333 77.0979 91.8 78.0313 91.8C79.0313 91.8 80.2646 91.1667 81.7313 89.9C83.1979 88.6333 84.6646 87.2667 86.1313 85.8C87.5979 84.2667 88.9313 82.8667 90.1313 81.6C91.3979 80.3333 92.2646 79.7 92.7313 79.7C93.6646 79.7 94.1313 80.8333 94.1313 83.1C94.1313 87.7667 91.7646 92.3333 87.0313 96.8C82.3646 101.2 77.3646 103.367 72.0313 103.3ZM76.1313 45.2C74.3313 42.5333 73.4313 39.6667 73.4313 36.6C73.4313 33.5333 73.8979 31 74.8313 29C75.8313 26.9333 76.7646 25.4333 77.6313 24.5C78.4979 23.5 79.4979 23 80.6313 23C82.4979 23 84.1979 24.4 85.7313 27.2C87.2646 29.9333 88.0313 32.2333 88.0313 34.1C88.0313 37.5667 86.7979 40.3 84.3313 42.3C81.9313 44.2333 79.1979 45.2 76.1313 45.2ZM111.433 103.3C101.899 103.367 95.3995 99.8 91.9328 92.6C90.7328 90.0667 90.1328 86.9 90.1328 83.1C90.1328 79.2333 90.4661 75.1333 91.1328 70.8C92.4661 62.1333 95.0328 54.1333 98.8328 46.8C100.766 43.0667 102.933 39.8667 105.333 37.2C110.599 31.3333 116.466 28.4333 122.933 28.5C125.799 28.5 128.033 29.3 129.633 30.9C131.299 32.4333 132.133 34.6667 132.133 37.6C132.133 40.5333 131.266 43.5 129.533 46.5C127.799 49.4333 125.566 52.5 122.833 55.7C120.166 58.8333 117.199 62.1333 113.933 65.6C110.666 69.0667 107.466 72.8333 104.333 76.9V80.9C104.333 84.6333 105.133 87.3667 106.733 89.1C108.333 90.8333 110.199 91.7 112.333 91.7C118.066 91.7 123.133 88.8667 127.533 83.2C129.333 80.8667 130.699 79.7 131.633 79.7C132.566 79.7 133.033 80.8333 133.033 83.1C133.033 85.3667 132.399 87.7 131.133 90.1C129.933 92.4333 128.333 94.6 126.333 96.6C124.333 98.5333 122.033 100.133 119.433 101.4C116.833 102.667 114.166 103.3 111.433 103.3ZM116.833 49.6C118.233 47.8667 119.333 46.3 120.133 44.9C120.933 43.5 121.333 42.0667 121.333 40.6C121.333 39.0667 120.799 38.3 119.733 38.3C117.399 38.3 114.799 40.7 111.933 45.5C109.133 50.3 107.033 56.6 105.633 64.4C107.899 60.9333 109.966 58.0333 111.833 55.7C113.766 53.3667 115.433 51.3333 116.833 49.6ZM154.021 95.7C150.688 100.3 146.221 102.6 140.621 102.6C136.088 102.6 132.454 101.667 129.721 99.8C127.054 97.8667 125.721 94.8333 125.721 90.7C125.721 88.9667 125.954 87.3667 126.421 85.9C126.954 84.4333 127.788 82.6333 128.921 80.5L131.821 56.8C133.888 55.2 136.688 54.4 140.221 54.4C143.221 54.4 144.921 56.4 145.321 60.4C145.454 61.6 145.521 63.0333 145.521 64.7C145.521 66.3 145.254 68 144.721 69.8C142.054 79 140.754 85.1667 140.821 88.3C140.821 90.7 142.221 91.9 145.021 91.9C147.821 91.9 149.888 91 151.221 89.2C152.554 87.4 153.688 85.1667 154.621 82.5C156.354 75.1 157.954 69 159.421 64.2C160.954 59.4 161.921 56.5333 162.321 55.6C162.988 54 164.254 53.1667 166.121 53.1C167.988 53.1667 169.754 54.5 171.421 57.1C173.088 59.6333 173.921 61.6 173.921 63C173.788 67.6667 170.888 79.4333 165.221 98.3C169.554 94.9 173.854 90.7333 178.121 85.8C179.588 84.0667 180.821 82.6333 181.821 81.5C182.821 80.3 183.621 79.7 184.221 79.7C185.154 79.7 185.621 80.7667 185.621 82.9C185.621 87.1 183.254 92 178.521 97.6C173.854 103.2 168.121 107.567 161.321 110.7C160.521 113.367 159.654 115.9 158.721 118.3C157.788 120.7 156.588 122.8 155.121 124.6C151.921 128.467 147.054 130.4 140.521 130.4C136.121 130.4 132.354 129.133 129.221 126.6C126.154 124.067 124.621 120.9 124.621 117.1C124.621 114.967 125.321 113.267 126.721 112C128.188 110.733 130.154 109.667 132.621 108.8C135.154 108 138.088 107.267 141.421 106.6C144.754 106 148.321 105.233 152.121 104.3C153.054 100.3 153.688 97.4333 154.021 95.7ZM140.421 122.7C143.554 122.7 146.388 119.967 148.921 114.5C146.521 114.967 144.388 115.3 142.521 115.5C140.654 115.767 139.054 116 137.721 116.2C135.054 116.6 133.754 117.3 133.821 118.3C133.821 119.567 134.554 120.633 136.021 121.5C137.554 122.367 139.021 122.767 140.421 122.7Z" fill="#D62828"/>
<path d="M14.6 70.1C10.7333 70.6333 7.53333 70.9 5 70.9C4.13333 70.9 3.7 70.5667 3.7 69.9C3.7 68.3667 4.73333 66.7667 6.8 65.1C8.93333 63.3667 12.3667 61.8667 17.1 60.6C19.2333 53 21.6667 46.0333 24.4 39.7C17.7333 40.0333 12.2667 42.2333 8 46.3C6.93333 47.3667 6.06667 48.2 5.4 48.8C4.73333 49.4 4.13333 49.7 3.6 49.7C3.13333 49.7 2.66667 49.3 2.2 48.5C1.73333 47.7 1.5 46.6333 1.5 45.3C1.56667 40.1667 5.03333 36 11.9 32.8C18.7667 29.6 27.2333 28.0333 37.3 28.1L67.3 28.6C69.1 28.6 70 29.3 70 30.7C70 31.1 69.7333 31.8333 69.2 32.9C68.6667 33.9 68.2 35 67.8 36.2C66.9333 38.6 65.0667 39.8 62.2 39.8H59L45.7 39.7H38C37.4667 43.5 35.8667 49.7 33.2 58.3L51.5 58.6C52.5667 58.6 53.1 59.2333 53.1 60.5C53.1 60.9 52.9333 61.6 52.6 62.6C52.2667 63.6 51.9667 64.6333 51.7 65.7C51.1667 67.9 50.0333 69 48.3 69L33.1 68.3H31.8C31.4 68.3 30.9333 68.3333 30.4 68.4C26.9333 81.1333 25.2 91.2 25.2 98.6C25.2 102.533 21.3667 104.5 13.7 104.5C12.0333 104.5 11.0333 103.667 10.7 102C10.4333 100.267 10.3 98 10.3 95.2C10.3 89.2 11.7333 80.8333 14.6 70.1ZM72.0313 103.3C65.3646 103.3 62.0313 97.0667 62.0313 84.6C62.0313 77.8 62.8646 71.6333 64.5313 66.1C67.1313 57.5667 70.0646 53.3 73.3313 53.3C75.2646 53.3 76.7979 54.6 77.9313 57.2C78.8646 59.2 79.2979 61.1667 79.2313 63.1C79.2313 65.7667 78.4313 70.4667 76.8313 77.2C75.2979 83.0667 74.5313 86.7 74.5313 88.1C74.5313 89.5 74.8646 90.4667 75.5313 91C76.2646 91.5333 77.0979 91.8 78.0313 91.8C79.0313 91.8 80.2646 91.1667 81.7313 89.9C83.1979 88.6333 84.6646 87.2667 86.1313 85.8C87.5979 84.2667 88.9313 82.8667 90.1313 81.6C91.3979 80.3333 92.2646 79.7 92.7313 79.7C93.6646 79.7 94.1313 80.8333 94.1313 83.1C94.1313 87.7667 91.7646 92.3333 87.0313 96.8C82.3646 101.2 77.3646 103.367 72.0313 103.3ZM76.1313 45.2C74.3313 42.5333 73.4313 39.6667 73.4313 36.6C73.4313 33.5333 73.8979 31 74.8313 29C75.8313 26.9333 76.7646 25.4333 77.6313 24.5C78.4979 23.5 79.4979 23 80.6313 23C82.4979 23 84.1979 24.4 85.7313 27.2C87.2646 29.9333 88.0313 32.2333 88.0313 34.1C88.0313 37.5667 86.7979 40.3 84.3313 42.3C81.9313 44.2333 79.1979 45.2 76.1313 45.2ZM111.433 103.3C101.899 103.367 95.3995 99.8 91.9328 92.6C90.7328 90.0667 90.1328 86.9 90.1328 83.1C90.1328 79.2333 90.4661 75.1333 91.1328 70.8C92.4661 62.1333 95.0328 54.1333 98.8328 46.8C100.766 43.0667 102.933 39.8667 105.333 37.2C110.599 31.3333 116.466 28.4333 122.933 28.5C125.799 28.5 128.033 29.3 129.633 30.9C131.299 32.4333 132.133 34.6667 132.133 37.6C132.133 40.5333 131.266 43.5 129.533 46.5C127.799 49.4333 125.566 52.5 122.833 55.7C120.166 58.8333 117.199 62.1333 113.933 65.6C110.666 69.0667 107.466 72.8333 104.333 76.9V80.9C104.333 84.6333 105.133 87.3667 106.733 89.1C108.333 90.8333 110.199 91.7 112.333 91.7C118.066 91.7 123.133 88.8667 127.533 83.2C129.333 80.8667 130.699 79.7 131.633 79.7C132.566 79.7 133.033 80.8333 133.033 83.1C133.033 85.3667 132.399 87.7 131.133 90.1C129.933 92.4333 128.333 94.6 126.333 96.6C124.333 98.5333 122.033 100.133 119.433 101.4C116.833 102.667 114.166 103.3 111.433 103.3ZM116.833 49.6C118.233 47.8667 119.333 46.3 120.133 44.9C120.933 43.5 121.333 42.0667 121.333 40.6C121.333 39.0667 120.799 38.3 119.733 38.3C117.399 38.3 114.799 40.7 111.933 45.5C109.133 50.3 107.033 56.6 105.633 64.4C107.899 60.9333 109.966 58.0333 111.833 55.7C113.766 53.3667 115.433 51.3333 116.833 49.6ZM154.021 95.7C150.688 100.3 146.221 102.6 140.621 102.6C136.088 102.6 132.454 101.667 129.721 99.8C127.054 97.8667 125.721 94.8333 125.721 90.7C125.721 88.9667 125.954 87.3667 126.421 85.9C126.954 84.4333 127.788 82.6333 128.921 80.5L131.821 56.8C133.888 55.2 136.688 54.4 140.221 54.4C143.221 54.4 144.921 56.4 145.321 60.4C145.454 61.6 145.521 63.0333 145.521 64.7C145.521 66.3 145.254 68 144.721 69.8C142.054 79 140.754 85.1667 140.821 88.3C140.821 90.7 142.221 91.9 145.021 91.9C147.821 91.9 149.888 91 151.221 89.2C152.554 87.4 153.688 85.1667 154.621 82.5C156.354 75.1 157.954 69 159.421 64.2C160.954 59.4 161.921 56.5333 162.321 55.6C162.988 54 164.254 53.1667 166.121 53.1C167.988 53.1667 169.754 54.5 171.421 57.1C173.088 59.6333 173.921 61.6 173.921 63C173.788 67.6667 170.888 79.4333 165.221 98.3C169.554 94.9 173.854 90.7333 178.121 85.8C179.588 84.0667 180.821 82.6333 181.821 81.5C182.821 80.3 183.621 79.7 184.221 79.7C185.154 79.7 185.621 80.7667 185.621 82.9C185.621 87.1 183.254 92 178.521 97.6C173.854 103.2 168.121 107.567 161.321 110.7C160.521 113.367 159.654 115.9 158.721 118.3C157.788 120.7 156.588 122.8 155.121 124.6C151.921 128.467 147.054 130.4 140.521 130.4C136.121 130.4 132.354 129.133 129.221 126.6C126.154 124.067 124.621 120.9 124.621 117.1C124.621 114.967 125.321 113.267 126.721 112C128.188 110.733 130.154 109.667 132.621 108.8C135.154 108 138.088 107.267 141.421 106.6C144.754 106 148.321 105.233 152.121 104.3C153.054 100.3 153.688 97.4333 154.021 95.7ZM140.421 122.7C143.554 122.7 146.388 119.967 148.921 114.5C146.521 114.967 144.388 115.3 142.521 115.5C140.654 115.767 139.054 116 137.721 116.2C135.054 116.6 133.754 117.3 133.821 118.3C133.821 119.567 134.554 120.633 136.021 121.5C137.554 122.367 139.021 122.767 140.421 122.7Z" fill="#D62828"/>
</svg>
