<svg width="199" height="134" viewBox="0 0 199 134" fill="none" xmlns="http://www.w3.org/2000/svg">
<path d="M22.1297 58.327C18.2631 58.8604 15.0631 59.127 12.5297 59.127C11.6631 59.127 11.2297 58.7937 11.2297 58.127C11.2297 56.5937 12.2631 54.9937 14.3297 53.327C16.4631 51.5937 19.8964 50.0937 24.6297 48.827C26.7631 41.227 29.1964 34.2603 31.9297 27.927C25.2631 28.2604 19.7964 30.4604 15.5297 34.527C14.4631 35.5937 13.5964 36.427 12.9297 37.027C12.2631 37.627 11.6631 37.927 11.1297 37.927C10.6631 37.927 10.1964 37.527 9.72972 36.727C9.26306 35.927 9.02972 34.8604 9.02972 33.527C9.09639 28.3937 12.5631 24.227 19.4297 21.027C26.2964 17.827 34.7631 16.2603 44.8297 16.327L74.8297 16.827C76.6297 16.827 77.5297 17.527 77.5297 18.927C77.5297 19.327 77.2631 20.0604 76.7297 21.127C76.1964 22.127 75.7297 23.227 75.3297 24.427C74.4631 26.827 72.5964 28.027 69.7297 28.027H66.5297L53.2297 27.927H45.5297C44.9964 31.727 43.3964 37.927 40.7297 46.527L59.0297 46.827C60.0964 46.827 60.6297 47.4604 60.6297 48.727C60.6297 49.127 60.4631 49.827 60.1297 50.827C59.7964 51.827 59.4964 52.8604 59.2297 53.927C58.6964 56.127 57.5631 57.227 55.8297 57.227L40.6297 56.527H39.3297C38.9297 56.527 38.4631 56.5604 37.9297 56.627C34.4631 69.3604 32.7297 79.427 32.7297 86.827C32.7297 90.7604 28.8964 92.727 21.2297 92.727C19.5631 92.727 18.5631 91.8937 18.2297 90.227C17.9631 88.4937 17.8297 86.227 17.8297 83.427C17.8297 77.427 19.2631 69.0604 22.1297 58.327ZM79.561 91.527C72.8943 91.527 69.561 85.2937 69.561 72.827C69.561 66.027 70.3943 59.8604 72.061 54.327C74.661 45.7937 77.5943 41.527 80.861 41.527C82.7943 41.527 84.3276 42.827 85.461 45.427C86.3943 47.427 86.8276 49.3937 86.761 51.327C86.761 53.9937 85.961 58.6937 84.361 65.427C82.8276 71.2937 82.061 74.927 82.061 76.327C82.061 77.727 82.3943 78.6937 83.061 79.227C83.7943 79.7604 84.6276 80.027 85.561 80.027C86.561 80.027 87.7943 79.3937 89.261 78.127C90.7276 76.8604 92.1943 75.4937 93.661 74.027C95.1276 72.4937 96.461 71.0937 97.661 69.827C98.9276 68.5604 99.7943 67.927 100.261 67.927C101.194 67.927 101.661 69.0604 101.661 71.327C101.661 75.9937 99.2943 80.5604 94.561 85.027C89.8943 89.427 84.8943 91.5937 79.561 91.527ZM83.661 33.427C81.861 30.7604 80.961 27.8937 80.961 24.827C80.961 21.7603 81.4276 19.227 82.361 17.227C83.361 15.1604 84.2943 13.6604 85.161 12.727C86.0276 11.727 87.0276 11.227 88.161 11.227C90.0276 11.227 91.7276 12.627 93.261 15.427C94.7943 18.1604 95.561 20.4604 95.561 22.327C95.561 25.7937 94.3276 28.527 91.861 30.527C89.461 32.4604 86.7276 33.427 83.661 33.427ZM118.963 91.527C109.429 91.5937 102.929 88.027 99.4625 80.827C98.2625 78.2937 97.6625 75.127 97.6625 71.327C97.6625 67.4604 97.9959 63.3604 98.6625 59.027C99.9959 50.3604 102.563 42.3604 106.363 35.027C108.296 31.2937 110.463 28.0937 112.863 25.427C118.129 19.5603 123.996 16.6603 130.463 16.727C133.329 16.727 135.563 17.527 137.163 19.127C138.829 20.6604 139.663 22.8937 139.663 25.827C139.663 28.7604 138.796 31.727 137.063 34.727C135.329 37.6604 133.096 40.727 130.363 43.927C127.696 47.0604 124.729 50.3604 121.463 53.827C118.196 57.2937 114.996 61.0604 111.863 65.127V69.127C111.863 72.8604 112.663 75.5937 114.263 77.327C115.863 79.0604 117.729 79.927 119.863 79.927C125.596 79.927 130.663 77.0937 135.063 71.427C136.863 69.0937 138.229 67.927 139.163 67.927C140.096 67.927 140.563 69.0604 140.563 71.327C140.563 73.5937 139.929 75.927 138.663 78.327C137.463 80.6604 135.863 82.827 133.863 84.827C131.863 86.7604 129.563 88.3604 126.963 89.627C124.363 90.8937 121.696 91.527 118.963 91.527ZM124.363 37.827C125.763 36.0937 126.863 34.527 127.663 33.127C128.463 31.727 128.863 30.2937 128.863 28.827C128.863 27.2937 128.329 26.527 127.263 26.527C124.929 26.527 122.329 28.927 119.463 33.727C116.663 38.527 114.563 44.827 113.163 52.627C115.429 49.1604 117.496 46.2604 119.363 43.927C121.296 41.5937 122.963 39.5604 124.363 37.827ZM161.551 83.927C158.217 88.527 153.751 90.827 148.151 90.827C143.617 90.827 139.984 89.8937 137.251 88.027C134.584 86.0937 133.251 83.0604 133.251 78.927C133.251 77.1937 133.484 75.5937 133.951 74.127C134.484 72.6604 135.317 70.8604 136.451 68.727L139.351 45.027C141.417 43.427 144.217 42.627 147.751 42.627C150.751 42.627 152.451 44.627 152.851 48.627C152.984 49.827 153.051 51.2604 153.051 52.927C153.051 54.527 152.784 56.227 152.251 58.027C149.584 67.227 148.284 73.3937 148.351 76.527C148.351 78.927 149.751 80.127 152.551 80.127C155.351 80.127 157.417 79.227 158.751 77.427C160.084 75.627 161.217 73.3937 162.151 70.727C163.884 63.327 165.484 57.227 166.951 52.427C168.484 47.627 169.451 44.7604 169.851 43.827C170.517 42.227 171.784 41.3937 173.651 41.327C175.517 41.3937 177.284 42.727 178.951 45.327C180.617 47.8604 181.451 49.827 181.451 51.227C181.317 55.8937 178.417 67.6604 172.751 86.527C177.084 83.127 181.384 78.9604 185.651 74.027C187.117 72.2937 188.351 70.8604 189.351 69.727C190.351 68.527 191.151 67.927 191.751 67.927C192.684 67.927 193.151 68.9937 193.151 71.127C193.151 75.327 190.784 80.227 186.051 85.827C181.384 91.427 175.651 95.7937 168.851 98.927C168.051 101.594 167.184 104.127 166.251 106.527C165.317 108.927 164.117 111.027 162.651 112.827C159.451 116.694 154.584 118.627 148.051 118.627C143.651 118.627 139.884 117.36 136.751 114.827C133.684 112.294 132.151 109.127 132.151 105.327C132.151 103.194 132.851 101.494 134.251 100.227C135.717 98.9604 137.684 97.8937 140.151 97.027C142.684 96.227 145.617 95.4937 148.951 94.827C152.284 94.227 155.851 93.4604 159.651 92.527C160.584 88.527 161.217 85.6604 161.551 83.927ZM147.951 110.927C151.084 110.927 153.917 108.194 156.451 102.727C154.051 103.194 151.917 103.527 150.051 103.727C148.184 103.994 146.584 104.227 145.251 104.427C142.584 104.827 141.284 105.527 141.351 106.527C141.351 107.794 142.084 108.86 143.551 109.727C145.084 110.594 146.551 110.994 147.951 110.927Z" fill="#D62828"/>
<path d="M22.1297 58.327C18.2631 58.8604 15.0631 59.127 12.5297 59.127C11.6631 59.127 11.2297 58.7937 11.2297 58.127C11.2297 56.5937 12.2631 54.9937 14.3297 53.327C16.4631 51.5937 19.8964 50.0937 24.6297 48.827C26.7631 41.227 29.1964 34.2603 31.9297 27.927C25.2631 28.2604 19.7964 30.4604 15.5297 34.527C14.4631 35.5937 13.5964 36.427 12.9297 37.027C12.2631 37.627 11.6631 37.927 11.1297 37.927C10.6631 37.927 10.1964 37.527 9.72972 36.727C9.26306 35.927 9.02972 34.8604 9.02972 33.527C9.09639 28.3937 12.5631 24.227 19.4297 21.027C26.2964 17.827 34.7631 16.2603 44.8297 16.327L74.8297 16.827C76.6297 16.827 77.5297 17.527 77.5297 18.927C77.5297 19.327 77.2631 20.0604 76.7297 21.127C76.1964 22.127 75.7297 23.227 75.3297 24.427C74.4631 26.827 72.5964 28.027 69.7297 28.027H66.5297L53.2297 27.927H45.5297C44.9964 31.727 43.3964 37.927 40.7297 46.527L59.0297 46.827C60.0964 46.827 60.6297 47.4604 60.6297 48.727C60.6297 49.127 60.4631 49.827 60.1297 50.827C59.7964 51.827 59.4964 52.8604 59.2297 53.927C58.6964 56.127 57.5631 57.227 55.8297 57.227L40.6297 56.527H39.3297C38.9297 56.527 38.4631 56.5604 37.9297 56.627C34.4631 69.3604 32.7297 79.427 32.7297 86.827C32.7297 90.7604 28.8964 92.727 21.2297 92.727C19.5631 92.727 18.5631 91.8937 18.2297 90.227C17.9631 88.4937 17.8297 86.227 17.8297 83.427C17.8297 77.427 19.2631 69.0604 22.1297 58.327ZM79.561 91.527C72.8943 91.527 69.561 85.2937 69.561 72.827C69.561 66.027 70.3943 59.8604 72.061 54.327C74.661 45.7937 77.5943 41.527 80.861 41.527C82.7943 41.527 84.3276 42.827 85.461 45.427C86.3943 47.427 86.8276 49.3937 86.761 51.327C86.761 53.9937 85.961 58.6937 84.361 65.427C82.8276 71.2937 82.061 74.927 82.061 76.327C82.061 77.727 82.3943 78.6937 83.061 79.227C83.7943 79.7604 84.6276 80.027 85.561 80.027C86.561 80.027 87.7943 79.3937 89.261 78.127C90.7276 76.8604 92.1943 75.4937 93.661 74.027C95.1276 72.4937 96.461 71.0937 97.661 69.827C98.9276 68.5604 99.7943 67.927 100.261 67.927C101.194 67.927 101.661 69.0604 101.661 71.327C101.661 75.9937 99.2943 80.5604 94.561 85.027C89.8943 89.427 84.8943 91.5937 79.561 91.527ZM83.661 33.427C81.861 30.7604 80.961 27.8937 80.961 24.827C80.961 21.7603 81.4276 19.227 82.361 17.227C83.361 15.1604 84.2943 13.6604 85.161 12.727C86.0276 11.727 87.0276 11.227 88.161 11.227C90.0276 11.227 91.7276 12.627 93.261 15.427C94.7943 18.1604 95.561 20.4604 95.561 22.327C95.561 25.7937 94.3276 28.527 91.861 30.527C89.461 32.4604 86.7276 33.427 83.661 33.427ZM118.963 91.527C109.429 91.5937 102.929 88.027 99.4625 80.827C98.2625 78.2937 97.6625 75.127 97.6625 71.327C97.6625 67.4604 97.9959 63.3604 98.6625 59.027C99.9959 50.3604 102.563 42.3604 106.363 35.027C108.296 31.2937 110.463 28.0937 112.863 25.427C118.129 19.5603 123.996 16.6603 130.463 16.727C133.329 16.727 135.563 17.527 137.163 19.127C138.829 20.6604 139.663 22.8937 139.663 25.827C139.663 28.7604 138.796 31.727 137.063 34.727C135.329 37.6604 133.096 40.727 130.363 43.927C127.696 47.0604 124.729 50.3604 121.463 53.827C118.196 57.2937 114.996 61.0604 111.863 65.127V69.127C111.863 72.8604 112.663 75.5937 114.263 77.327C115.863 79.0604 117.729 79.927 119.863 79.927C125.596 79.927 130.663 77.0937 135.063 71.427C136.863 69.0937 138.229 67.927 139.163 67.927C140.096 67.927 140.563 69.0604 140.563 71.327C140.563 73.5937 139.929 75.927 138.663 78.327C137.463 80.6604 135.863 82.827 133.863 84.827C131.863 86.7604 129.563 88.3604 126.963 89.627C124.363 90.8937 121.696 91.527 118.963 91.527ZM124.363 37.827C125.763 36.0937 126.863 34.527 127.663 33.127C128.463 31.727 128.863 30.2937 128.863 28.827C128.863 27.2937 128.329 26.527 127.263 26.527C124.929 26.527 122.329 28.927 119.463 33.727C116.663 38.527 114.563 44.827 113.163 52.627C115.429 49.1604 117.496 46.2604 119.363 43.927C121.296 41.5937 122.963 39.5604 124.363 37.827ZM161.551 83.927C158.217 88.527 153.751 90.827 148.151 90.827C143.617 90.827 139.984 89.8937 137.251 88.027C134.584 86.0937 133.251 83.0604 133.251 78.927C133.251 77.1937 133.484 75.5937 133.951 74.127C134.484 72.6604 135.317 70.8604 136.451 68.727L139.351 45.027C141.417 43.427 144.217 42.627 147.751 42.627C150.751 42.627 152.451 44.627 152.851 48.627C152.984 49.827 153.051 51.2604 153.051 52.927C153.051 54.527 152.784 56.227 152.251 58.027C149.584 67.227 148.284 73.3937 148.351 76.527C148.351 78.927 149.751 80.127 152.551 80.127C155.351 80.127 157.417 79.227 158.751 77.427C160.084 75.627 161.217 73.3937 162.151 70.727C163.884 63.327 165.484 57.227 166.951 52.427C168.484 47.627 169.451 44.7604 169.851 43.827C170.517 42.227 171.784 41.3937 173.651 41.327C175.517 41.3937 177.284 42.727 178.951 45.327C180.617 47.8604 181.451 49.827 181.451 51.227C181.317 55.8937 178.417 67.6604 172.751 86.527C177.084 83.127 181.384 78.9604 185.651 74.027C187.117 72.2937 188.351 70.8604 189.351 69.727C190.351 68.527 191.151 67.927 191.751 67.927C192.684 67.927 193.151 68.9937 193.151 71.127C193.151 75.327 190.784 80.227 186.051 85.827C181.384 91.427 175.651 95.7937 168.851 98.927C168.051 101.594 167.184 104.127 166.251 106.527C165.317 108.927 164.117 111.027 162.651 112.827C159.451 116.694 154.584 118.627 148.051 118.627C143.651 118.627 139.884 117.36 136.751 114.827C133.684 112.294 132.151 109.127 132.151 105.327C132.151 103.194 132.851 101.494 134.251 100.227C135.717 98.9604 137.684 97.8937 140.151 97.027C142.684 96.227 145.617 95.4937 148.951 94.827C152.284 94.227 155.851 93.4604 159.651 92.527C160.584 88.527 161.217 85.6604 161.551 83.927ZM147.951 110.927C151.084 110.927 153.917 108.194 156.451 102.727C154.051 103.194 151.917 103.527 150.051 103.727C148.184 103.994 146.584 104.227 145.251 104.427C142.584 104.827 141.284 105.527 141.351 106.527C141.351 107.794 142.084 108.86 143.551 109.727C145.084 110.594 146.551 110.994 147.951 110.927Z" fill="#EAE2B7"/>
<path d="M14.6 55.1C10.7333 55.6333 7.53333 55.9 5 55.9C4.13333 55.9 3.7 55.5667 3.7 54.9C3.7 53.3667 4.73333 51.7667 6.8 50.1C8.93333 48.3667 12.3667 46.8667 17.1 45.6C19.2333 38 21.6667 31.0333 24.4 24.7C17.7333 25.0333 12.2667 27.2333 8 31.3C6.93333 32.3667 6.06667 33.2 5.4 33.8C4.73333 34.4 4.13333 34.7 3.6 34.7C3.13333 34.7 2.66667 34.3 2.2 33.5C1.73333 32.7 1.5 31.6333 1.5 30.3C1.56667 25.1667 5.03333 21 11.9 17.8C18.7667 14.6 27.2333 13.0333 37.3 13.1L67.3 13.6C69.1 13.6 70 14.3 70 15.7C70 16.1 69.7333 16.8333 69.2 17.9C68.6667 18.9 68.2 20 67.8 21.2C66.9333 23.6 65.0667 24.8 62.2 24.8H59L45.7 24.7H38C37.4667 28.5 35.8667 34.7 33.2 43.3L51.5 43.6C52.5667 43.6 53.1 44.2333 53.1 45.5C53.1 45.9 52.9333 46.6 52.6 47.6C52.2667 48.6 51.9667 49.6333 51.7 50.7C51.1667 52.9 50.0333 54 48.3 54L33.1 53.3H31.8C31.4 53.3 30.9333 53.3333 30.4 53.4C26.9333 66.1333 25.2 76.2 25.2 83.6C25.2 87.5333 21.3667 89.5 13.7 89.5C12.0333 89.5 11.0333 88.6667 10.7 87C10.4333 85.2667 10.3 83 10.3 80.2C10.3 74.2 11.7333 65.8333 14.6 55.1ZM72.0313 88.3C65.3646 88.3 62.0313 82.0667 62.0313 69.6C62.0313 62.8 62.8646 56.6333 64.5313 51.1C67.1313 42.5667 70.0646 38.3 73.3313 38.3C75.2646 38.3 76.7979 39.6 77.9313 42.2C78.8646 44.2 79.2979 46.1667 79.2313 48.1C79.2313 50.7667 78.4313 55.4667 76.8313 62.2C75.2979 68.0667 74.5313 71.7 74.5313 73.1C74.5313 74.5 74.8646 75.4667 75.5313 76C76.2646 76.5333 77.0979 76.8 78.0313 76.8C79.0313 76.8 80.2646 76.1667 81.7313 74.9C83.1979 73.6333 84.6646 72.2667 86.1313 70.8C87.5979 69.2667 88.9313 67.8667 90.1313 66.6C91.3979 65.3333 92.2646 64.7 92.7313 64.7C93.6646 64.7 94.1313 65.8333 94.1313 68.1C94.1313 72.7667 91.7646 77.3333 87.0313 81.8C82.3646 86.2 77.3646 88.3667 72.0313 88.3ZM76.1313 30.2C74.3313 27.5333 73.4313 24.6667 73.4313 21.6C73.4313 18.5333 73.8979 16 74.8313 14C75.8313 11.9333 76.7646 10.4333 77.6313 9.5C78.4979 8.5 79.4979 8 80.6313 8C82.4979 8 84.1979 9.4 85.7313 12.2C87.2646 14.9333 88.0313 17.2333 88.0313 19.1C88.0313 22.5667 86.7979 25.3 84.3313 27.3C81.9313 29.2333 79.1979 30.2 76.1313 30.2ZM111.433 88.3C101.899 88.3667 95.3995 84.8 91.9328 77.6C90.7328 75.0667 90.1328 71.9 90.1328 68.1C90.1328 64.2333 90.4661 60.1333 91.1328 55.8C92.4661 47.1333 95.0328 39.1333 98.8328 31.8C100.766 28.0667 102.933 24.8667 105.333 22.2C110.599 16.3333 116.466 13.4333 122.933 13.5C125.799 13.5 128.033 14.3 129.633 15.9C131.299 17.4333 132.133 19.6667 132.133 22.6C132.133 25.5333 131.266 28.5 129.533 31.5C127.799 34.4333 125.566 37.5 122.833 40.7C120.166 43.8333 117.199 47.1333 113.933 50.6C110.666 54.0667 107.466 57.8333 104.333 61.9V65.9C104.333 69.6333 105.133 72.3667 106.733 74.1C108.333 75.8333 110.199 76.7 112.333 76.7C118.066 76.7 123.133 73.8667 127.533 68.2C129.333 65.8667 130.699 64.7 131.633 64.7C132.566 64.7 133.033 65.8333 133.033 68.1C133.033 70.3667 132.399 72.7 131.133 75.1C129.933 77.4333 128.333 79.6 126.333 81.6C124.333 83.5333 122.033 85.1333 119.433 86.4C116.833 87.6667 114.166 88.3 111.433 88.3ZM116.833 34.6C118.233 32.8667 119.333 31.3 120.133 29.9C120.933 28.5 121.333 27.0667 121.333 25.6C121.333 24.0667 120.799 23.3 119.733 23.3C117.399 23.3 114.799 25.7 111.933 30.5C109.133 35.3 107.033 41.6 105.633 49.4C107.899 45.9333 109.966 43.0333 111.833 40.7C113.766 38.3667 115.433 36.3333 116.833 34.6ZM154.021 80.7C150.688 85.3 146.221 87.6 140.621 87.6C136.088 87.6 132.454 86.6667 129.721 84.8C127.054 82.8667 125.721 79.8333 125.721 75.7C125.721 73.9667 125.954 72.3667 126.421 70.9C126.954 69.4333 127.788 67.6333 128.921 65.5L131.821 41.8C133.888 40.2 136.688 39.4 140.221 39.4C143.221 39.4 144.921 41.4 145.321 45.4C145.454 46.6 145.521 48.0333 145.521 49.7C145.521 51.3 145.254 53 144.721 54.8C142.054 64 140.754 70.1667 140.821 73.3C140.821 75.7 142.221 76.9 145.021 76.9C147.821 76.9 149.888 76 151.221 74.2C152.554 72.4 153.688 70.1667 154.621 67.5C156.354 60.1 157.954 54 159.421 49.2C160.954 44.4 161.921 41.5333 162.321 40.6C162.988 39 164.254 38.1667 166.121 38.1C167.988 38.1667 169.754 39.5 171.421 42.1C173.088 44.6333 173.921 46.6 173.921 48C173.788 52.6667 170.888 64.4333 165.221 83.3C169.554 79.9 173.854 75.7333 178.121 70.8C179.588 69.0667 180.821 67.6333 181.821 66.5C182.821 65.3 183.621 64.7 184.221 64.7C185.154 64.7 185.621 65.7667 185.621 67.9C185.621 72.1 183.254 77 178.521 82.6C173.854 88.2 168.121 92.5667 161.321 95.7C160.521 98.3667 159.654 100.9 158.721 103.3C157.788 105.7 156.588 107.8 155.121 109.6C151.921 113.467 147.054 115.4 140.521 115.4C136.121 115.4 132.354 114.133 129.221 111.6C126.154 109.067 124.621 105.9 124.621 102.1C124.621 99.9667 125.321 98.2667 126.721 97C128.188 95.7333 130.154 94.6667 132.621 93.8C135.154 93 138.088 92.2667 141.421 91.6C144.754 91 148.321 90.2333 152.121 89.3C153.054 85.3 153.688 82.4333 154.021 80.7ZM140.421 107.7C143.554 107.7 146.388 104.967 148.921 99.5C146.521 99.9667 144.388 100.3 142.521 100.5C140.654 100.767 139.054 101 137.721 101.2C135.054 101.6 133.754 102.3 133.821 103.3C133.821 104.567 134.554 105.633 136.021 106.5C137.554 107.367 139.021 107.767 140.421 107.7Z" fill="#D62828"/>
<path d="M14.6 55.1C10.7333 55.6333 7.53333 55.9 5 55.9C4.13333 55.9 3.7 55.5667 3.7 54.9C3.7 53.3667 4.73333 51.7667 6.8 50.1C8.93333 48.3667 12.3667 46.8667 17.1 45.6C19.2333 38 21.6667 31.0333 24.4 24.7C17.7333 25.0333 12.2667 27.2333 8 31.3C6.93333 32.3667 6.06667 33.2 5.4 33.8C4.73333 34.4 4.13333 34.7 3.6 34.7C3.13333 34.7 2.66667 34.3 2.2 33.5C1.73333 32.7 1.5 31.6333 1.5 30.3C1.56667 25.1667 5.03333 21 11.9 17.8C18.7667 14.6 27.2333 13.0333 37.3 13.1L67.3 13.6C69.1 13.6 70 14.3 70 15.7C70 16.1 69.7333 16.8333 69.2 17.9C68.6667 18.9 68.2 20 67.8 21.2C66.9333 23.6 65.0667 24.8 62.2 24.8H59L45.7 24.7H38C37.4667 28.5 35.8667 34.7 33.2 43.3L51.5 43.6C52.5667 43.6 53.1 44.2333 53.1 45.5C53.1 45.9 52.9333 46.6 52.6 47.6C52.2667 48.6 51.9667 49.6333 51.7 50.7C51.1667 52.9 50.0333 54 48.3 54L33.1 53.3H31.8C31.4 53.3 30.9333 53.3333 30.4 53.4C26.9333 66.1333 25.2 76.2 25.2 83.6C25.2 87.5333 21.3667 89.5 13.7 89.5C12.0333 89.5 11.0333 88.6667 10.7 87C10.4333 85.2667 10.3 83 10.3 80.2C10.3 74.2 11.7333 65.8333 14.6 55.1ZM72.0313 88.3C65.3646 88.3 62.0313 82.0667 62.0313 69.6C62.0313 62.8 62.8646 56.6333 64.5313 51.1C67.1313 42.5667 70.0646 38.3 73.3313 38.3C75.2646 38.3 76.7979 39.6 77.9313 42.2C78.8646 44.2 79.2979 46.1667 79.2313 48.1C79.2313 50.7667 78.4313 55.4667 76.8313 62.2C75.2979 68.0667 74.5313 71.7 74.5313 73.1C74.5313 74.5 74.8646 75.4667 75.5313 76C76.2646 76.5333 77.0979 76.8 78.0313 76.8C79.0313 76.8 80.2646 76.1667 81.7313 74.9C83.1979 73.6333 84.6646 72.2667 86.1313 70.8C87.5979 69.2667 88.9313 67.8667 90.1313 66.6C91.3979 65.3333 92.2646 64.7 92.7313 64.7C93.6646 64.7 94.1313 65.8333 94.1313 68.1C94.1313 72.7667 91.7646 77.3333 87.0313 81.8C82.3646 86.2 77.3646 88.3667 72.0313 88.3ZM76.1313 30.2C74.3313 27.5333 73.4313 24.6667 73.4313 21.6C73.4313 18.5333 73.8979 16 74.8313 14C75.8313 11.9333 76.7646 10.4333 77.6313 9.5C78.4979 8.5 79.4979 8 80.6313 8C82.4979 8 84.1979 9.4 85.7313 12.2C87.2646 14.9333 88.0313 17.2333 88.0313 19.1C88.0313 22.5667 86.7979 25.3 84.3313 27.3C81.9313 29.2333 79.1979 30.2 76.1313 30.2ZM111.433 88.3C101.899 88.3667 95.3995 84.8 91.9328 77.6C90.7328 75.0667 90.1328 71.9 90.1328 68.1C90.1328 64.2333 90.4661 60.1333 91.1328 55.8C92.4661 47.1333 95.0328 39.1333 98.8328 31.8C100.766 28.0667 102.933 24.8667 105.333 22.2C110.599 16.3333 116.466 13.4333 122.933 13.5C125.799 13.5 128.033 14.3 129.633 15.9C131.299 17.4333 132.133 19.6667 132.133 22.6C132.133 25.5333 131.266 28.5 129.533 31.5C127.799 34.4333 125.566 37.5 122.833 40.7C120.166 43.8333 117.199 47.1333 113.933 50.6C110.666 54.0667 107.466 57.8333 104.333 61.9V65.9C104.333 69.6333 105.133 72.3667 106.733 74.1C108.333 75.8333 110.199 76.7 112.333 76.7C118.066 76.7 123.133 73.8667 127.533 68.2C129.333 65.8667 130.699 64.7 131.633 64.7C132.566 64.7 133.033 65.8333 133.033 68.1C133.033 70.3667 132.399 72.7 131.133 75.1C129.933 77.4333 128.333 79.6 126.333 81.6C124.333 83.5333 122.033 85.1333 119.433 86.4C116.833 87.6667 114.166 88.3 111.433 88.3ZM116.833 34.6C118.233 32.8667 119.333 31.3 120.133 29.9C120.933 28.5 121.333 27.0667 121.333 25.6C121.333 24.0667 120.799 23.3 119.733 23.3C117.399 23.3 114.799 25.7 111.933 30.5C109.133 35.3 107.033 41.6 105.633 49.4C107.899 45.9333 109.966 43.0333 111.833 40.7C113.766 38.3667 115.433 36.3333 116.833 34.6ZM154.021 80.7C150.688 85.3 146.221 87.6 140.621 87.6C136.088 87.6 132.454 86.6667 129.721 84.8C127.054 82.8667 125.721 79.8333 125.721 75.7C125.721 73.9667 125.954 72.3667 126.421 70.9C126.954 69.4333 127.788 67.6333 128.921 65.5L131.821 41.8C133.888 40.2 136.688 39.4 140.221 39.4C143.221 39.4 144.921 41.4 145.321 45.4C145.454 46.6 145.521 48.0333 145.521 49.7C145.521 51.3 145.254 53 144.721 54.8C142.054 64 140.754 70.1667 140.821 73.3C140.821 75.7 142.221 76.9 145.021 76.9C147.821 76.9 149.888 76 151.221 74.2C152.554 72.4 153.688 70.1667 154.621 67.5C156.354 60.1 157.954 54 159.421 49.2C160.954 44.4 161.921 41.5333 162.321 40.6C162.988 39 164.254 38.1667 166.121 38.1C167.988 38.1667 169.754 39.5 171.421 42.1C173.088 44.6333 173.921 46.6 173.921 48C173.788 52.6667 170.888 64.4333 165.221 83.3C169.554 79.9 173.854 75.7333 178.121 70.8C179.588 69.0667 180.821 67.6333 181.821 66.5C182.821 65.3 183.621 64.7 184.221 64.7C185.154 64.7 185.621 65.7667 185.621 67.9C185.621 72.1 183.254 77 178.521 82.6C173.854 88.2 168.121 92.5667 161.321 95.7C160.521 98.3667 159.654 100.9 158.721 103.3C157.788 105.7 156.588 107.8 155.121 109.6C151.921 113.467 147.054 115.4 140.521 115.4C136.121 115.4 132.354 114.133 129.221 111.6C126.154 109.067 124.621 105.9 124.621 102.1C124.621 99.9667 125.321 98.2667 126.721 97C128.188 95.7333 130.154 94.6667 132.621 93.8C135.154 93 138.088 92.2667 141.421 91.6C144.754 91 148.321 90.2333 152.121 89.3C153.054 85.3 153.688 82.4333 154.021 80.7ZM140.421 107.7C143.554 107.7 146.388 104.967 148.921 99.5C146.521 99.9667 144.388 100.3 142.521 100.5C140.654 100.767 139.054 101 137.721 101.2C135.054 101.6 133.754 102.3 133.821 103.3C133.821 104.567 134.554 105.633 136.021 106.5C137.554 107.367 139.021 107.767 140.421 107.7Z" fill="#D62828"/>
</svg>
