<svg width="58" height="58" viewBox="0 0 58 58" fill="none" xmlns="http://www.w3.org/2000/svg">
<g clip-path="url(#clip0)">
<path fill-rule="evenodd" clip-rule="evenodd" d="M16.9167 26.5833V32.3833H26.5108C26.1242 34.8701 23.6108 39.6817 16.9167 39.6817C11.1408 39.6817 6.42833 34.8991 6.42833 29C6.42833 23.1033 11.1408 18.3183 16.9167 18.3183C20.2033 18.3183 22.4025 19.72 23.6592 20.9283L28.2508 16.5058C25.3025 13.7508 21.4842 12.0833 16.9167 12.0833C7.56417 12.0833 0 19.6475 0 29C0 38.3525 7.56417 45.9167 16.9167 45.9167C26.68 45.9167 33.1591 39.0533 33.1591 29.3867C33.1591 28.275 33.0358 27.4292 32.8908 26.5833H16.9167V26.5833ZM16.9167 26.5833L58 31.4167H50.75V38.6667H45.9167V31.4167H38.6667V26.5833H45.9167V19.3333H50.75V26.5833H58V31.4167L16.9167 26.5833Z" fill="white"/>
</g>
<defs>
<clipPath id="clip0">
<rect width="58" height="58" fill="white"/>
</clipPath>
</defs>
</svg>
