<svg width="633" height="405" viewBox="0 0 633 405" fill="none" xmlns="http://www.w3.org/2000/svg">
<g filter="url(#filter0_d)">
<path d="M101.276 187.581C90.2203 189.114 81.0706 189.88 73.8268 189.88C71.349 189.88 70.1097 188.922 70.1097 187.007C70.1097 182.601 73.0645 178.004 78.9736 173.216C85.0736 168.236 94.8904 163.926 108.424 160.287C114.524 138.451 121.482 118.434 129.297 100.238C110.235 101.196 94.6045 107.517 82.4047 119.201C79.355 122.265 76.8768 124.66 74.9705 126.384C73.0645 128.107 71.3489 128.969 69.8238 128.969C68.4897 128.969 67.1552 127.82 65.8208 125.522C64.4865 123.223 63.8193 120.159 63.8193 116.328C64.01 101.579 73.9223 89.6074 93.556 80.4134C113.19 71.2194 137.399 66.718 166.182 66.9097L251.961 68.3462C257.108 68.3462 259.681 70.3574 259.681 74.3798C259.681 75.5291 258.919 77.6362 257.394 80.7007C255.869 83.5738 254.534 86.7343 253.391 90.182C250.913 97.0776 245.575 100.525 237.379 100.525H228.229L190.2 100.238H168.184C166.659 111.156 162.084 128.969 154.459 153.678L206.784 154.54C209.834 154.54 211.359 156.36 211.359 159.999C211.359 161.148 210.883 163.16 209.929 166.033C208.976 168.906 208.119 171.875 207.356 174.939C205.831 181.26 202.591 184.421 197.634 184.421L154.173 182.41H150.456C149.312 182.41 147.978 182.506 146.453 182.697C136.541 219.282 131.585 248.204 131.585 269.466C131.585 280.767 120.624 286.417 98.7027 286.417C93.9374 286.417 91.0781 284.023 90.1248 279.234C89.3625 274.254 88.9811 267.742 88.9811 259.697C88.9811 242.458 93.0796 218.42 101.276 187.581ZM265.489 282.969C246.427 282.969 236.896 265.06 236.896 229.242C236.896 209.704 239.279 191.987 244.044 176.089C251.479 151.571 259.866 139.313 269.206 139.313C274.734 139.313 279.118 143.048 282.359 150.518C285.028 156.264 286.267 161.915 286.076 167.469C286.076 175.131 283.789 188.635 279.214 207.981C274.829 224.836 272.637 235.275 272.637 239.298C272.637 243.32 273.59 246.098 275.497 247.63C277.593 249.162 279.976 249.928 282.645 249.928C285.504 249.928 289.031 248.109 293.224 244.469C297.418 240.83 301.612 236.904 305.805 232.689C309.999 228.284 313.811 224.262 317.242 220.622C320.864 216.983 323.342 215.163 324.677 215.163C327.344 215.163 328.68 218.42 328.68 224.932C328.68 238.34 321.913 251.461 308.379 264.294C295.035 276.936 280.739 283.161 265.489 282.969ZM277.212 116.04C272.066 108.379 269.492 100.142 269.492 91.3313C269.492 82.5203 270.826 75.2418 273.495 69.4955C276.355 63.5579 279.023 59.2482 281.501 56.5664C283.979 53.6933 286.838 52.2567 290.079 52.2567C295.416 52.2567 300.277 56.2791 304.662 64.3238C309.046 72.1773 311.238 78.7855 311.238 84.1485C311.238 94.1088 307.711 101.962 300.659 107.708C293.796 113.263 285.981 116.04 277.212 116.04ZM378.151 282.969C350.891 283.161 332.305 272.913 322.393 252.227C318.962 244.948 317.247 235.85 317.247 224.932C317.247 213.823 318.2 202.043 320.106 189.592C323.919 164.692 331.259 141.707 342.124 120.637C347.651 109.911 353.847 100.717 360.709 93.0552C375.767 76.1994 392.542 67.8673 411.033 68.0589C419.228 68.0589 425.615 70.3574 430.19 74.9544C434.954 79.3601 437.339 85.7767 437.339 94.2044C437.339 102.632 434.86 111.156 429.904 119.775C424.946 128.203 418.562 137.014 410.747 146.208C403.121 155.211 394.638 164.692 385.299 174.652C375.958 184.612 366.808 195.435 357.85 207.119V218.611C357.85 229.338 360.138 237.191 364.712 242.171C369.287 247.151 374.623 249.641 380.725 249.641C397.117 249.641 411.605 241.501 424.186 225.219C429.333 218.515 433.238 215.163 435.909 215.163C438.577 215.163 439.912 218.42 439.912 224.932C439.912 231.445 438.099 238.148 434.479 245.044C431.048 251.748 426.473 257.973 420.755 263.719C415.036 269.274 408.46 273.871 401.026 277.51C393.591 281.15 385.966 282.969 378.151 282.969ZM393.591 128.682C397.594 123.702 400.74 119.201 403.027 115.178C405.315 111.156 406.458 107.038 406.458 102.824C406.458 98.4185 404.931 96.2156 401.883 96.2156C395.21 96.2156 387.776 103.111 379.581 116.902C371.575 130.693 365.57 148.794 361.567 171.204C368.046 161.244 373.957 152.912 379.295 146.208C384.822 139.504 389.588 133.662 393.591 128.682ZM499.923 261.134C490.39 274.35 477.62 280.958 461.608 280.958C448.644 280.958 438.256 278.277 430.442 272.913C422.816 267.359 419.005 258.644 419.005 246.768C419.005 241.788 419.671 237.191 421.006 232.977C422.53 228.763 424.912 223.591 428.155 217.462L436.447 149.369C442.354 144.772 450.36 142.473 460.465 142.473C469.043 142.473 473.903 148.219 475.047 159.712C475.427 163.16 475.619 167.278 475.619 172.066C475.619 176.663 474.855 181.548 473.331 186.719C465.706 213.152 461.989 230.87 462.18 239.872C462.18 246.768 466.183 250.216 474.189 250.216C482.195 250.216 488.103 247.63 491.917 242.458C495.728 237.287 498.968 230.87 501.638 223.208C506.594 201.947 511.169 184.421 515.363 170.63C519.746 156.839 522.511 148.603 523.655 145.921C525.559 141.324 529.182 138.93 534.52 138.738C539.856 138.93 544.908 142.76 549.675 150.231C554.438 157.509 556.823 163.16 556.823 167.182C556.44 180.59 548.148 214.397 531.947 268.604C544.336 258.835 556.631 246.864 568.832 232.689C573.024 227.709 576.552 223.591 579.411 220.335C582.271 216.887 584.558 215.163 586.274 215.163C588.941 215.163 590.277 218.228 590.277 224.357C590.277 236.425 583.509 250.503 569.976 266.592C556.631 282.682 540.239 295.228 520.796 304.231C518.508 311.893 516.029 319.171 513.362 326.066C510.691 332.962 507.26 338.995 503.068 344.167C493.918 355.278 480.002 360.831 461.322 360.831C448.741 360.831 437.971 357.191 429.012 349.913C420.243 342.636 415.86 333.536 415.86 322.619C415.86 316.49 417.861 311.606 421.864 307.966C426.056 304.326 431.68 301.262 438.734 298.772C445.977 296.473 454.363 294.366 463.896 292.451C473.426 290.727 483.625 288.524 494.49 285.842C497.158 274.35 498.968 266.114 499.923 261.134ZM461.036 338.708C469.995 338.708 478.095 330.856 485.34 315.148C478.478 316.49 472.376 317.447 467.041 318.022C461.703 318.789 457.128 319.458 453.316 320.033C445.691 321.182 441.974 323.193 442.165 326.066C442.165 329.707 444.261 332.769 448.456 335.26C452.839 337.751 457.033 338.901 461.036 338.708Z" fill="#D62828"/>
<path d="M100.276 187.581C89.2203 189.114 80.0706 189.88 72.8268 189.88C70.349 189.88 69.1097 188.922 69.1097 187.007C69.1097 182.601 72.0645 178.004 77.9736 173.216C84.0736 168.236 93.8904 163.926 107.424 160.287C113.524 138.451 120.482 118.434 128.297 100.238C109.235 101.196 93.6045 107.517 81.4047 119.201C78.355 122.265 75.8768 124.66 73.9705 126.384C72.0645 128.107 70.3489 128.969 68.8238 128.969C67.4897 128.969 66.1552 127.82 64.8208 125.522C63.4865 123.223 62.8193 120.159 62.8193 116.328C63.01 101.579 72.9223 89.6074 92.556 80.4134C112.19 71.2194 136.399 66.718 165.182 66.9097L250.961 68.3462C256.108 68.3462 258.681 70.3574 258.681 74.3798C258.681 75.5291 257.919 77.6362 256.394 80.7007C254.869 83.5738 253.534 86.7343 252.391 90.182C249.913 97.0776 244.575 100.525 236.379 100.525H227.229L189.2 100.238H167.184C165.659 111.156 161.084 128.969 153.459 153.678L205.784 154.54C208.834 154.54 210.359 156.36 210.359 159.999C210.359 161.148 209.883 163.16 208.929 166.033C207.976 168.906 207.119 171.875 206.356 174.939C204.831 181.26 201.591 184.421 196.634 184.421L153.173 182.41H149.456C148.312 182.41 146.978 182.506 145.453 182.697C135.541 219.282 130.585 248.204 130.585 269.466C130.585 280.767 119.624 286.417 97.7027 286.417C92.9374 286.417 90.0781 284.023 89.1248 279.234C88.3625 274.254 87.9811 267.742 87.9811 259.697C87.9811 242.458 92.0796 218.42 100.276 187.581ZM264.489 282.969C245.427 282.969 235.896 265.06 235.896 229.242C235.896 209.704 238.279 191.987 243.044 176.089C250.479 151.571 258.866 139.313 268.206 139.313C273.734 139.313 278.118 143.048 281.359 150.518C284.028 156.264 285.267 161.915 285.076 167.469C285.076 175.131 282.789 188.635 278.214 207.981C273.829 224.836 271.637 235.275 271.637 239.298C271.637 243.32 272.59 246.098 274.497 247.63C276.593 249.162 278.976 249.928 281.645 249.928C284.504 249.928 288.031 248.109 292.224 244.469C296.418 240.83 300.612 236.904 304.805 232.689C308.999 228.284 312.811 224.262 316.242 220.622C319.864 216.983 322.342 215.163 323.677 215.163C326.344 215.163 327.68 218.42 327.68 224.932C327.68 238.34 320.913 251.461 307.379 264.294C294.035 276.936 279.739 283.161 264.489 282.969ZM276.212 116.04C271.066 108.379 268.492 100.142 268.492 91.3313C268.492 82.5203 269.826 75.2418 272.495 69.4955C275.355 63.5579 278.023 59.2482 280.501 56.5664C282.979 53.6933 285.838 52.2567 289.079 52.2567C294.416 52.2567 299.277 56.2791 303.662 64.3238C308.046 72.1773 310.238 78.7855 310.238 84.1485C310.238 94.1088 306.711 101.962 299.659 107.708C292.796 113.263 284.981 116.04 276.212 116.04ZM377.151 282.969C349.891 283.161 331.305 272.913 321.393 252.227C317.962 244.948 316.247 235.85 316.247 224.932C316.247 213.823 317.2 202.043 319.106 189.592C322.919 164.692 330.259 141.707 341.124 120.637C346.651 109.911 352.847 100.717 359.709 93.0552C374.767 76.1994 391.542 67.8673 410.033 68.0589C418.228 68.0589 424.615 70.3574 429.19 74.9544C433.954 79.3601 436.339 85.7767 436.339 94.2044C436.339 102.632 433.86 111.156 428.904 119.775C423.946 128.203 417.562 137.014 409.747 146.208C402.121 155.211 393.638 164.692 384.299 174.652C374.958 184.612 365.808 195.435 356.85 207.119V218.611C356.85 229.338 359.138 237.191 363.712 242.171C368.287 247.151 373.623 249.641 379.725 249.641C396.117 249.641 410.605 241.501 423.186 225.219C428.333 218.515 432.238 215.163 434.909 215.163C437.577 215.163 438.912 218.42 438.912 224.932C438.912 231.445 437.099 238.148 433.479 245.044C430.048 251.748 425.473 257.973 419.755 263.719C414.036 269.274 407.46 273.871 400.026 277.51C392.591 281.15 384.966 282.969 377.151 282.969ZM392.591 128.682C396.594 123.702 399.74 119.201 402.027 115.178C404.315 111.156 405.458 107.038 405.458 102.824C405.458 98.4185 403.931 96.2156 400.883 96.2156C394.21 96.2156 386.776 103.111 378.581 116.902C370.575 130.693 364.57 148.794 360.567 171.204C367.046 161.244 372.957 152.912 378.295 146.208C383.822 139.504 388.588 133.662 392.591 128.682ZM498.923 261.134C489.39 274.35 476.62 280.958 460.608 280.958C447.644 280.958 437.256 278.277 429.442 272.913C421.816 267.359 418.005 258.644 418.005 246.768C418.005 241.788 418.671 237.191 420.006 232.977C421.53 228.763 423.912 223.591 427.155 217.462L435.447 149.369C441.354 144.772 449.36 142.473 459.465 142.473C468.043 142.473 472.903 148.219 474.047 159.712C474.427 163.16 474.619 167.278 474.619 172.066C474.619 176.663 473.855 181.548 472.331 186.719C464.706 213.152 460.989 230.87 461.18 239.872C461.18 246.768 465.183 250.216 473.189 250.216C481.195 250.216 487.103 247.63 490.917 242.458C494.728 237.287 497.968 230.87 500.638 223.208C505.594 201.947 510.169 184.421 514.363 170.63C518.746 156.839 521.511 148.603 522.655 145.921C524.559 141.324 528.182 138.93 533.52 138.738C538.856 138.93 543.908 142.76 548.675 150.231C553.438 157.509 555.823 163.16 555.823 167.182C555.44 180.59 547.148 214.397 530.947 268.604C543.336 258.835 555.631 246.864 567.832 232.689C572.024 227.709 575.552 223.591 578.411 220.335C581.271 216.887 583.558 215.163 585.274 215.163C587.941 215.163 589.277 218.228 589.277 224.357C589.277 236.425 582.509 250.503 568.976 266.592C555.631 282.682 539.239 295.228 519.796 304.231C517.508 311.893 515.029 319.171 512.362 326.066C509.691 332.962 506.26 338.995 502.068 344.167C492.918 355.278 479.002 360.831 460.322 360.831C447.741 360.831 436.971 357.191 428.012 349.913C419.243 342.636 414.86 333.536 414.86 322.619C414.86 316.49 416.861 311.606 420.864 307.966C425.056 304.326 430.68 301.262 437.734 298.772C444.977 296.473 453.363 294.366 462.896 292.451C472.426 290.727 482.625 288.524 493.49 285.842C496.158 274.35 497.968 266.114 498.923 261.134ZM460.036 338.708C468.995 338.708 477.095 330.856 484.34 315.148C477.478 316.49 471.376 317.447 466.041 318.022C460.703 318.789 456.128 319.458 452.316 320.033C444.691 321.182 440.974 323.193 441.165 326.066C441.165 329.707 443.261 332.769 447.456 335.26C451.839 337.751 456.033 338.901 460.036 338.708Z" fill="#EAE2B7"/>
<path d="M79.7449 178.31C68.6888 179.842 59.5392 180.608 52.2956 180.608C49.8176 180.608 48.5785 179.651 48.5785 177.735C48.5785 173.33 51.5331 168.733 57.4424 163.944C63.5422 158.964 73.3592 154.654 86.8931 151.015C92.9928 129.179 99.9507 109.163 107.766 90.9664C88.7039 91.924 73.0733 98.2449 60.8735 109.929C57.8236 112.994 55.3455 115.388 53.4393 117.112C51.5331 118.836 49.8176 119.698 48.2926 119.698C46.9583 119.698 45.6239 118.548 44.2896 116.25C42.9552 113.951 42.2881 110.887 42.2881 107.056C42.4787 92.3073 52.3909 80.3358 72.0248 71.1418C91.6587 61.9477 115.867 57.4464 144.651 57.638L230.43 59.0746C235.577 59.0746 238.15 61.0858 238.15 65.1082C238.15 66.2575 237.387 68.3643 235.862 71.4291C234.338 74.3022 233.003 77.4627 231.859 80.9104C229.381 87.806 224.044 91.2537 215.847 91.2537H206.698L168.669 90.9664H146.652C145.128 101.884 140.553 119.698 132.928 144.407L185.253 145.269C188.303 145.269 189.828 147.088 189.828 150.728C189.828 151.877 189.351 153.888 188.398 156.761C187.445 159.634 186.587 162.603 185.825 165.668C184.3 171.989 181.059 175.149 176.103 175.149L132.642 173.138H128.925C127.781 173.138 126.447 173.234 124.922 173.425C115.009 210.01 110.053 238.933 110.053 260.194C110.053 271.495 99.0929 277.146 77.1715 277.146C72.4059 277.146 69.5466 274.751 68.5936 269.963C67.831 264.983 67.4499 258.47 67.4499 250.425C67.4499 233.187 71.5481 209.148 79.7449 178.31ZM243.958 273.698C224.896 273.698 215.365 255.789 215.365 219.97C215.365 200.433 217.748 182.715 222.513 166.817C229.947 142.3 238.335 130.041 247.675 130.041C253.203 130.041 257.587 133.776 260.828 141.246C263.496 146.993 264.735 152.643 264.545 158.198C264.545 165.86 262.257 179.363 257.683 198.709C253.298 215.565 251.106 226.004 251.106 230.026C251.106 234.048 252.059 236.826 253.965 238.358C256.062 239.89 258.445 240.657 261.114 240.657C263.973 240.657 267.499 238.837 271.693 235.198C275.887 231.558 280.08 227.632 284.274 223.418C288.467 219.013 292.28 214.99 295.711 211.351C299.333 207.711 301.811 205.892 303.145 205.892C305.814 205.892 307.148 209.148 307.148 215.66C307.148 229.068 300.381 242.189 286.847 255.022C273.504 267.664 259.207 273.889 243.958 273.698ZM255.681 106.769C250.534 99.1069 247.961 90.8707 247.961 82.0597C247.961 73.2486 249.295 65.9701 251.964 60.2239C254.823 54.286 257.492 49.9763 259.97 47.2948C262.448 44.4216 265.307 42.9851 268.548 42.9851C273.885 42.9851 278.746 47.0074 283.13 55.0522C287.514 62.9054 289.707 69.5136 289.707 74.8769C289.707 84.8372 286.18 92.6903 279.127 98.4366C272.265 103.991 264.449 106.769 255.681 106.769ZM356.619 273.698C329.359 273.889 310.775 263.642 300.862 242.955C297.431 235.677 295.715 226.578 295.715 215.66C295.715 204.551 296.669 192.771 298.575 180.321C302.387 155.42 309.726 132.435 320.591 111.366C326.119 100.639 332.315 91.4454 339.177 83.7836C354.234 66.9278 371.01 58.5957 389.501 58.7873C397.696 58.7873 404.083 61.0858 408.658 65.6828C413.422 70.0882 415.806 76.5051 415.806 84.9328C415.806 93.3606 413.328 101.884 408.372 110.504C403.414 118.931 397.03 127.743 389.215 136.937C381.589 145.939 373.106 155.42 363.767 165.381C354.426 175.341 345.276 186.163 336.318 197.847V209.34C336.318 220.066 338.606 227.919 343.18 232.899C347.755 237.879 353.091 240.369 359.192 240.369C375.585 240.369 390.073 232.229 402.654 215.948C407.8 209.244 411.706 205.892 414.377 205.892C417.045 205.892 418.38 209.148 418.38 215.66C418.38 222.173 416.567 228.877 412.947 235.772C409.516 242.476 404.941 248.701 399.223 254.448C393.504 260.002 386.928 264.599 379.493 268.239C372.059 271.878 364.434 273.698 356.619 273.698ZM372.059 119.41C376.062 114.43 379.208 109.929 381.495 105.907C383.782 101.884 384.926 97.7663 384.926 93.5522C384.926 89.1469 383.399 86.944 380.351 86.944C373.678 86.944 366.243 93.8395 358.049 107.631C350.043 121.422 344.038 139.522 340.035 161.933C346.514 151.973 352.424 143.64 357.763 136.937C363.29 130.233 368.056 124.39 372.059 119.41ZM478.391 251.862C468.861 265.078 456.088 271.687 440.076 271.687C427.115 271.687 416.724 269.005 408.91 263.642C401.284 258.087 397.473 249.372 397.473 237.496C397.473 232.516 398.139 227.919 399.474 223.705C400.998 219.491 403.383 214.32 406.622 208.19L414.914 140.097C420.825 135.5 428.831 133.201 438.932 133.201C447.51 133.201 452.371 138.948 453.515 150.44C453.895 153.888 454.087 158.006 454.087 162.795C454.087 167.392 453.323 172.276 451.799 177.448C444.174 203.881 440.457 221.598 440.648 230.601C440.648 237.496 444.651 240.944 452.657 240.944C460.663 240.944 466.573 238.358 470.385 233.187C474.196 228.015 477.439 221.598 480.106 213.937C485.062 192.675 489.636 175.149 493.831 161.358C498.214 147.567 500.979 139.331 502.123 136.649C504.03 132.052 507.65 129.658 512.988 129.466C518.327 129.658 523.376 133.489 528.143 140.959C532.909 148.237 535.291 153.888 535.291 157.91C534.91 171.318 526.618 205.126 510.415 259.332C522.804 249.563 535.099 237.592 547.3 223.418C551.494 218.438 555.02 214.32 557.879 211.063C560.739 207.616 563.026 205.892 564.742 205.892C567.409 205.892 568.745 208.957 568.745 215.086C568.745 227.153 561.977 241.231 548.444 257.321C535.099 273.41 518.707 285.957 499.264 294.959C496.976 302.621 494.497 309.899 491.829 316.795C489.162 323.69 485.731 329.724 481.536 334.896C472.386 346.006 458.47 351.56 439.79 351.56C427.209 351.56 416.438 347.919 407.48 340.642C398.711 333.364 394.327 324.265 394.327 313.347C394.327 307.218 396.329 302.333 400.332 298.694C404.527 295.055 410.148 291.99 417.202 289.5C424.444 287.201 432.834 285.095 442.364 283.179C451.894 281.455 462.093 279.252 472.958 276.571C475.626 265.078 477.439 256.842 478.391 251.862ZM439.504 329.437C448.463 329.437 456.566 321.584 463.808 305.877C456.946 307.218 450.847 308.175 445.509 308.75C440.171 309.517 435.596 310.187 431.784 310.761C424.159 311.91 420.441 313.922 420.633 316.795C420.633 320.435 422.729 323.498 426.923 325.989C431.307 328.48 435.501 329.629 439.504 329.437Z" fill="#D62828"/>
<path d="M79.7449 178.31C68.6888 179.842 59.5392 180.608 52.2956 180.608C49.8176 180.608 48.5785 179.651 48.5785 177.735C48.5785 173.33 51.5331 168.733 57.4424 163.944C63.5422 158.964 73.3592 154.654 86.8931 151.015C92.9928 129.179 99.9507 109.163 107.766 90.9664C88.7039 91.924 73.0733 98.2449 60.8735 109.929C57.8236 112.994 55.3455 115.388 53.4393 117.112C51.5331 118.836 49.8176 119.698 48.2926 119.698C46.9583 119.698 45.6239 118.548 44.2896 116.25C42.9552 113.951 42.2881 110.887 42.2881 107.056C42.4787 92.3073 52.3909 80.3358 72.0248 71.1418C91.6587 61.9477 115.867 57.4464 144.651 57.638L230.43 59.0746C235.577 59.0746 238.15 61.0858 238.15 65.1082C238.15 66.2575 237.387 68.3643 235.862 71.4291C234.338 74.3022 233.003 77.4627 231.859 80.9104C229.381 87.806 224.044 91.2537 215.847 91.2537H206.698L168.669 90.9664H146.652C145.128 101.884 140.553 119.698 132.928 144.407L185.253 145.269C188.303 145.269 189.828 147.088 189.828 150.728C189.828 151.877 189.351 153.888 188.398 156.761C187.445 159.634 186.587 162.603 185.825 165.668C184.3 171.989 181.059 175.149 176.103 175.149L132.642 173.138H128.925C127.781 173.138 126.447 173.234 124.922 173.425C115.009 210.01 110.053 238.933 110.053 260.194C110.053 271.495 99.0929 277.146 77.1715 277.146C72.4059 277.146 69.5466 274.751 68.5936 269.963C67.831 264.983 67.4499 258.47 67.4499 250.425C67.4499 233.187 71.5481 209.148 79.7449 178.31ZM243.958 273.698C224.896 273.698 215.365 255.789 215.365 219.97C215.365 200.433 217.748 182.715 222.513 166.817C229.947 142.3 238.335 130.041 247.675 130.041C253.203 130.041 257.587 133.776 260.828 141.246C263.496 146.993 264.735 152.643 264.545 158.198C264.545 165.86 262.257 179.363 257.683 198.709C253.298 215.565 251.106 226.004 251.106 230.026C251.106 234.048 252.059 236.826 253.965 238.358C256.062 239.89 258.445 240.657 261.114 240.657C263.973 240.657 267.499 238.837 271.693 235.198C275.887 231.558 280.08 227.632 284.274 223.418C288.467 219.013 292.28 214.99 295.711 211.351C299.333 207.711 301.811 205.892 303.145 205.892C305.814 205.892 307.148 209.148 307.148 215.66C307.148 229.068 300.381 242.189 286.847 255.022C273.504 267.664 259.207 273.889 243.958 273.698ZM255.681 106.769C250.534 99.1069 247.961 90.8707 247.961 82.0597C247.961 73.2486 249.295 65.9701 251.964 60.2239C254.823 54.286 257.492 49.9763 259.97 47.2948C262.448 44.4216 265.307 42.9851 268.548 42.9851C273.885 42.9851 278.746 47.0074 283.13 55.0522C287.514 62.9054 289.707 69.5136 289.707 74.8769C289.707 84.8372 286.18 92.6903 279.127 98.4366C272.265 103.991 264.449 106.769 255.681 106.769ZM356.619 273.698C329.359 273.889 310.775 263.642 300.862 242.955C297.431 235.677 295.715 226.578 295.715 215.66C295.715 204.551 296.669 192.771 298.575 180.321C302.387 155.42 309.726 132.435 320.591 111.366C326.119 100.639 332.315 91.4454 339.177 83.7836C354.234 66.9278 371.01 58.5957 389.501 58.7873C397.696 58.7873 404.083 61.0858 408.658 65.6828C413.422 70.0882 415.806 76.5051 415.806 84.9328C415.806 93.3606 413.328 101.884 408.372 110.504C403.414 118.931 397.03 127.743 389.215 136.937C381.589 145.939 373.106 155.42 363.767 165.381C354.426 175.341 345.276 186.163 336.318 197.847V209.34C336.318 220.066 338.606 227.919 343.18 232.899C347.755 237.879 353.091 240.369 359.192 240.369C375.585 240.369 390.073 232.229 402.654 215.948C407.8 209.244 411.706 205.892 414.377 205.892C417.045 205.892 418.38 209.148 418.38 215.66C418.38 222.173 416.567 228.877 412.947 235.772C409.516 242.476 404.941 248.701 399.223 254.448C393.504 260.002 386.928 264.599 379.493 268.239C372.059 271.878 364.434 273.698 356.619 273.698ZM372.059 119.41C376.062 114.43 379.208 109.929 381.495 105.907C383.782 101.884 384.926 97.7663 384.926 93.5522C384.926 89.1469 383.399 86.944 380.351 86.944C373.678 86.944 366.243 93.8395 358.049 107.631C350.043 121.422 344.038 139.522 340.035 161.933C346.514 151.973 352.424 143.64 357.763 136.937C363.29 130.233 368.056 124.39 372.059 119.41ZM478.391 251.862C468.861 265.078 456.088 271.687 440.076 271.687C427.115 271.687 416.724 269.005 408.91 263.642C401.284 258.087 397.473 249.372 397.473 237.496C397.473 232.516 398.139 227.919 399.474 223.705C400.998 219.491 403.383 214.32 406.622 208.19L414.914 140.097C420.825 135.5 428.831 133.201 438.932 133.201C447.51 133.201 452.371 138.948 453.515 150.44C453.895 153.888 454.087 158.006 454.087 162.795C454.087 167.392 453.323 172.276 451.799 177.448C444.174 203.881 440.457 221.598 440.648 230.601C440.648 237.496 444.651 240.944 452.657 240.944C460.663 240.944 466.573 238.358 470.385 233.187C474.196 228.015 477.439 221.598 480.106 213.937C485.062 192.675 489.636 175.149 493.831 161.358C498.214 147.567 500.979 139.331 502.123 136.649C504.03 132.052 507.65 129.658 512.988 129.466C518.327 129.658 523.376 133.489 528.143 140.959C532.909 148.237 535.291 153.888 535.291 157.91C534.91 171.318 526.618 205.126 510.415 259.332C522.804 249.563 535.099 237.592 547.3 223.418C551.494 218.438 555.02 214.32 557.879 211.063C560.739 207.616 563.026 205.892 564.742 205.892C567.409 205.892 568.745 208.957 568.745 215.086C568.745 227.153 561.977 241.231 548.444 257.321C535.099 273.41 518.707 285.957 499.264 294.959C496.976 302.621 494.497 309.899 491.829 316.795C489.162 323.69 485.731 329.724 481.536 334.896C472.386 346.006 458.47 351.56 439.79 351.56C427.209 351.56 416.438 347.919 407.48 340.642C398.711 333.364 394.327 324.265 394.327 313.347C394.327 307.218 396.329 302.333 400.332 298.694C404.527 295.055 410.148 291.99 417.202 289.5C424.444 287.201 432.834 285.095 442.364 283.179C451.894 281.455 462.093 279.252 472.958 276.571C475.626 265.078 477.439 256.842 478.391 251.862ZM439.504 329.437C448.463 329.437 456.566 321.584 463.808 305.877C456.946 307.218 450.847 308.175 445.509 308.75C440.171 309.517 435.596 310.187 431.784 310.761C424.159 311.91 420.441 313.922 420.633 316.795C420.633 320.435 422.729 323.498 426.923 325.989C431.307 328.48 435.501 329.629 439.504 329.437Z" fill="#D62828"/>
</g>
<defs>
<filter id="filter0_d" x="-4" y="-22" width="653" height="469" filterUnits="userSpaceOnUse" color-interpolation-filters="sRGB">
<feFlood flood-opacity="0" result="BackgroundImageFix"/>
<feColorMatrix in="SourceAlpha" type="matrix" values="0 0 0 0 0 0 0 0 0 0 0 0 0 0 0 0 0 0 127 0" result="hardAlpha"/>
<feOffset/>
<feGaussianBlur stdDeviation="21"/>
<feColorMatrix type="matrix" values="0 0 0 0 0 0 0 0 0 0 0 0 0 0 0 0 0 0 1 0"/>
<feBlend mode="normal" in2="BackgroundImageFix" result="effect1_dropShadow"/>
<feBlend mode="normal" in="SourceGraphic" in2="effect1_dropShadow" result="shape"/>
</filter>
</defs>
</svg>
