<svg width="191" height="122" viewBox="0 0 191 122" fill="none" xmlns="http://www.w3.org/2000/svg">
<rect width="191" height="122" fill="#E5E5E5"/>
<g id="LoginPagre">
<g id="HomePage">
<g id="Home" clip-path="url(#clip0)" filter="url(#filter0_d)">
<rect width="1920" height="1080" transform="translate(-818 -118)" fill="#F0F0F0"/>
<g id="BackGround">
<g id="Repeating-Triangles 1">
<path id="Vector" d="M620 -125H-820V595H620V-125Z" fill="#D9D9D9"/>
<g id="Group">
<path id="Vector_2" d="M-100 -35V235L170 -35H-100Z" fill="#E0E0E0"/>
<path id="Vector_3" d="M170 -125V55L350 -125H170Z" fill="#E0E0E0"/>
</g>
</g>
</g>
<g id="contaner" filter="url(#filter1_d)">
<rect x="-237" y="-17" width="669" height="894" rx="29" fill="#FFFEFE"/>
</g>
<g id="Logo" filter="url(#filter2_d)">
<path id="Vector_4" d="M28.683 54.7979C25.2439 55.2715 22.3976 55.5083 20.1443 55.5083C19.3735 55.5083 18.988 55.2123 18.988 54.6202C18.988 53.2586 19.9072 51.8377 21.7453 50.3576C23.6428 48.8183 26.6966 47.4862 30.9066 46.3613C32.8042 39.612 34.9684 33.4252 37.3996 27.8008C31.47 28.0969 26.6076 30.0507 22.8126 33.662C21.864 34.6093 21.0931 35.3493 20.5001 35.8822C19.9072 36.415 19.3735 36.6814 18.8991 36.6814C18.4841 36.6814 18.069 36.3262 17.6539 35.6158C17.2388 34.9053 17.0312 33.9581 17.0312 32.774C17.0905 28.2153 20.174 24.515 26.2815 21.6732C32.3891 18.8314 39.9197 17.4401 48.8734 17.4993L75.5569 17.9434C77.1579 17.9434 77.9584 18.565 77.9584 19.8083C77.9584 20.1635 77.7212 20.8148 77.2468 21.762C76.7725 22.6501 76.3574 23.627 76.0016 24.6926C75.2308 26.824 73.5705 27.8896 71.0207 27.8896H68.1744L56.3448 27.8008H49.4961C49.0217 31.1755 47.5986 36.6814 45.2267 44.3188L61.5036 44.5852C62.4524 44.5852 62.9267 45.1477 62.9267 46.2725C62.9267 46.6277 62.7785 47.2493 62.482 48.1374C62.1855 49.0255 61.9187 49.9432 61.6815 50.8904C61.2071 52.8441 60.1991 53.821 58.6574 53.821L45.1378 53.1993H43.9815C43.6257 53.1993 43.2107 53.229 42.7363 53.2882C39.6529 64.5962 38.1111 73.5359 38.1111 80.1076C38.1111 83.6007 34.7016 85.3471 27.8825 85.3471C26.4001 85.3471 25.5107 84.6071 25.2141 83.127C24.977 81.5877 24.8584 79.5747 24.8584 77.0882C24.8584 71.7598 26.1333 64.3298 28.683 54.7979ZM79.7651 84.2814C73.8354 84.2814 70.8706 78.7459 70.8706 67.6747C70.8706 61.6359 71.6118 56.1596 73.0942 51.2456C75.4068 43.6675 78.0158 39.8785 80.9214 39.8785C82.641 39.8785 84.0047 41.0329 85.0128 43.3419C85.843 45.118 86.2284 46.8646 86.1691 48.5814C86.1691 50.9496 85.4576 55.1235 84.0345 61.1031C82.6706 66.3131 81.9887 69.5397 81.9887 70.7829C81.9887 72.0262 82.2852 72.8847 82.8782 73.3583C83.5304 73.832 84.2716 74.0688 85.1018 74.0688C85.9912 74.0688 87.0882 73.5063 88.3927 72.3814C89.6972 71.2566 91.0018 70.0429 92.3063 68.7404C93.6108 67.3787 94.7968 66.1354 95.8641 65.0105C96.9907 63.8857 97.7616 63.3232 98.1767 63.3232C99.0065 63.3232 99.4219 64.3298 99.4219 66.3426C99.4219 70.4869 97.3168 74.5424 93.1068 78.5091C88.956 82.4165 84.5088 84.3407 79.7651 84.2814ZM83.4118 32.6852C81.8108 30.3171 81.0103 27.7713 81.0103 25.0479C81.0103 22.3244 81.4253 20.0747 82.2556 18.2986C83.145 16.4633 83.9751 15.1312 84.746 14.3023C85.5168 13.4143 86.4063 12.9702 87.4144 12.9702C89.0746 12.9702 90.5866 14.2135 91.9505 16.7001C93.3143 19.1275 93.9963 21.1701 93.9963 22.8277C93.9963 25.9063 92.8992 28.3337 90.7053 30.1098C88.5706 31.8268 86.1394 32.6852 83.4118 32.6852ZM114.811 84.2814C106.331 84.3407 100.55 81.1732 97.4664 74.7792C96.3991 72.5295 95.8654 69.7173 95.8654 66.3426C95.8654 62.9089 96.162 59.2678 96.7549 55.4195C97.9409 47.723 100.224 40.6186 103.604 34.1061C105.323 30.7907 107.251 27.9489 109.385 25.5807C114.069 20.3707 119.288 17.7953 125.04 17.8546C127.589 17.8546 129.576 18.565 130.999 19.9859C132.481 21.3477 133.223 23.331 133.223 25.9359C133.223 28.541 132.452 31.1755 130.91 33.8396C129.368 36.4447 127.382 39.168 124.951 42.0098C122.579 44.7924 119.94 47.723 117.035 50.8016C114.129 53.8802 111.283 57.2253 108.496 60.8367V64.3889C108.496 67.7044 109.208 70.1317 110.631 71.671C112.054 73.2104 113.714 73.9799 115.612 73.9799C120.711 73.9799 125.218 71.4638 129.131 66.4314C130.732 64.3593 131.947 63.3232 132.778 63.3232C133.608 63.3232 134.023 64.3298 134.023 66.3426C134.023 68.3556 133.459 70.4277 132.333 72.5591C131.266 74.6313 129.843 76.5553 128.064 78.3314C126.285 80.0484 124.239 81.4693 121.927 82.5941C119.614 83.719 117.242 84.2814 114.811 84.2814ZM119.614 36.5926C120.859 35.0534 121.838 33.662 122.549 32.4188C123.261 31.1755 123.617 29.9026 123.617 28.6001C123.617 27.2384 123.142 26.5576 122.194 26.5576C120.118 26.5576 117.805 28.6889 115.256 32.9516C112.765 37.2143 110.898 42.809 109.652 49.7359C111.668 46.6574 113.506 44.082 115.167 42.0098C116.886 39.9377 118.369 38.132 119.614 36.5926ZM152.691 77.5322C149.725 81.6173 145.753 83.6598 140.772 83.6598C136.74 83.6598 133.508 82.831 131.077 81.1732C128.705 79.4563 127.52 76.7626 127.52 73.0919C127.52 71.5526 127.727 70.1317 128.142 68.8292C128.616 67.5268 129.357 65.9283 130.366 64.0337L132.945 42.9867C134.783 41.5658 137.273 40.8553 140.417 40.8553C143.085 40.8553 144.597 42.6314 144.953 46.1837C145.071 47.2493 145.131 48.5223 145.131 50.0023C145.131 51.4232 144.893 52.9329 144.419 54.5314C142.047 62.7016 140.891 68.178 140.95 70.9605C140.95 73.0919 142.195 74.1576 144.686 74.1576C147.176 74.1576 149.014 73.3583 150.2 71.7598C151.386 70.1613 152.394 68.178 153.225 65.8098C154.766 59.2382 156.189 53.821 157.494 49.5583C158.857 45.2956 159.718 42.7499 160.073 41.921C160.666 40.5001 161.793 39.7601 163.453 39.7008C165.113 39.7601 166.685 40.9441 168.167 43.2531C169.649 45.5029 170.391 47.2493 170.391 48.4926C170.272 52.6369 167.692 63.0865 162.653 79.8411C166.507 76.8217 170.331 73.1215 174.127 68.7404C175.43 67.2011 176.528 65.9283 177.418 64.9217C178.307 63.8561 179.019 63.3232 179.552 63.3232C180.382 63.3232 180.797 64.2705 180.797 66.165C180.797 69.8949 178.692 74.2464 174.482 79.2195C170.331 84.1926 165.232 88.0705 159.184 90.8531C158.472 93.2215 157.701 95.471 156.871 97.6023C156.041 99.7337 154.973 101.599 153.669 103.197C150.823 106.631 146.494 108.348 140.683 108.348C136.77 108.348 133.419 107.223 130.633 104.973C127.905 102.724 126.541 99.9113 126.541 96.5367C126.541 94.6424 127.164 93.1327 128.409 92.0076C129.713 90.8827 131.462 89.9354 133.657 89.1658C135.91 88.4553 138.518 87.8041 141.484 87.212C144.448 86.6792 147.621 85.9984 151.001 85.1695C151.831 81.6173 152.394 79.0716 152.691 77.5322ZM140.594 101.51C143.381 101.51 145.901 99.0827 148.155 94.2277C146.02 94.6424 144.122 94.9382 142.462 95.1158C140.802 95.3529 139.379 95.5598 138.193 95.7374C135.821 96.0926 134.664 96.7143 134.724 97.6023C134.724 98.7275 135.376 99.6742 136.681 100.444C138.044 101.214 139.349 101.569 140.594 101.51Z" fill="#EAE2B7"/>
<path id="Vector_5" d="M21.9857 51.9321C18.5465 52.4057 15.7003 52.6425 13.4471 52.6425C12.6762 52.6425 12.2908 52.3465 12.2908 51.7545C12.2908 50.3928 13.2099 48.9719 15.0481 47.4918C16.9455 45.9525 19.9993 44.6204 24.2094 43.4955C26.1068 36.7463 28.2712 30.5594 30.7023 24.9351C24.7726 25.2311 19.9104 27.1848 16.1154 30.7963C15.1666 31.7436 14.3958 32.4836 13.8028 33.0164C13.2099 33.5493 12.6762 33.8157 12.2018 33.8157C11.7867 33.8157 11.3717 33.4604 10.9566 32.75C10.5415 32.0395 10.334 31.0923 10.334 29.9082C10.3933 25.3495 13.4767 21.6493 19.5842 18.8075C25.6918 15.9657 33.2224 14.5743 42.1762 14.6336L68.8596 15.0776C70.4606 15.0776 71.2611 15.6993 71.2611 16.9425C71.2611 17.2978 71.0239 17.949 70.5496 18.8963C70.0752 19.7843 69.6601 20.7612 69.3043 21.8269C68.5335 23.9582 66.8732 25.0239 64.3234 25.0239H61.4772L49.6476 24.9351H42.7988C42.3245 28.3097 40.9014 33.8157 38.5295 41.453L54.8064 41.7194C55.7551 41.7194 56.2295 42.2818 56.2295 43.4067C56.2295 43.7619 56.0812 44.3836 55.7847 45.2716C55.4883 46.1597 55.2215 47.0773 54.9842 48.0246C54.5099 49.9784 53.5018 50.9552 51.9601 50.9552L38.4405 50.3336H37.2842C36.9285 50.3336 36.5134 50.3632 36.039 50.4224C32.9556 61.7303 31.4139 70.6701 31.4139 77.2418C31.4139 80.7348 28.0044 82.4813 21.1852 82.4813C19.7028 82.4813 18.8134 81.7413 18.5169 80.2612C18.2797 78.7219 18.1611 76.7089 18.1611 74.2224C18.1611 68.894 19.436 61.4639 21.9857 51.9321ZM73.0679 81.4157C67.1382 81.4157 64.1734 75.8801 64.1734 64.8089C64.1734 58.7701 64.9146 53.2937 66.397 48.3798C68.7096 40.8018 71.3186 37.0127 74.2241 37.0127C75.9437 37.0127 77.3075 38.1672 78.3156 40.4761C79.1457 42.2522 79.5311 43.9988 79.4719 45.7157C79.4719 48.0839 78.7603 52.2577 77.3372 58.2373C75.9733 63.4473 75.2915 66.6739 75.2915 67.9172C75.2915 69.1604 75.5879 70.0189 76.1809 70.4925C76.8332 70.9661 77.5743 71.203 78.4045 71.203C79.294 71.203 80.3909 70.6406 81.6955 69.5157C83 68.3908 84.3045 67.1771 85.6091 65.8746C86.9135 64.513 88.0995 63.2697 89.1669 62.1448C90.2934 61.0199 91.0643 60.4575 91.4794 60.4575C92.3095 60.4575 92.7246 61.4639 92.7246 63.4769C92.7246 67.6212 90.6196 71.6766 86.4096 75.6433C82.2588 79.5507 77.8116 81.4749 73.0679 81.4157ZM76.7146 29.8194C75.1136 27.4512 74.3131 24.9055 74.3131 22.1821C74.3131 19.4587 74.7281 17.209 75.5583 15.4328C76.4478 13.5975 77.2779 12.2654 78.0488 11.4366C78.8196 10.5485 79.709 10.1045 80.7171 10.1045C82.3774 10.1045 83.8894 11.3478 85.2533 13.8343C86.6171 16.2617 87.299 18.3042 87.299 19.9619C87.299 23.0406 86.202 25.4679 84.0081 27.244C81.8734 28.9609 79.4422 29.8194 76.7146 29.8194ZM108.114 81.4157C99.6336 81.4749 93.8526 78.3075 90.7692 71.9134C89.7019 69.6637 89.1682 66.8515 89.1682 63.4769C89.1682 60.043 89.4646 56.402 90.0576 52.5537C91.2435 44.8572 93.5265 37.7527 96.9064 31.2403C98.6259 27.9249 100.553 25.0831 102.688 22.7149C107.372 17.5049 112.59 14.9296 118.342 14.9888C120.891 14.9888 122.878 15.6993 124.302 17.1201C125.783 18.4818 126.525 20.4652 126.525 23.0701C126.525 25.6751 125.754 28.3097 124.213 30.9739C122.67 33.5788 120.684 36.3022 118.253 39.144C115.881 41.9266 113.242 44.8572 110.337 47.9358C107.431 51.0145 104.585 54.3594 101.799 57.9709V61.5231C101.799 64.8385 102.51 67.2659 103.933 68.8052C105.356 70.3445 107.016 71.1142 108.914 71.1142C114.013 71.1142 118.52 68.598 122.434 63.5657C124.035 61.4936 125.25 60.4575 126.08 60.4575C126.91 60.4575 127.326 61.4639 127.326 63.4769C127.326 65.4898 126.762 67.5619 125.636 69.6933C124.568 71.7654 123.145 73.6895 121.366 75.4657C119.587 77.1825 117.542 78.6034 115.229 79.7284C112.917 80.8533 110.544 81.4157 108.114 81.4157ZM112.917 33.7269C114.162 32.1876 115.14 30.7963 115.852 29.553C116.563 28.3097 116.919 27.0368 116.919 25.7343C116.919 24.3727 116.444 23.6918 115.496 23.6918C113.42 23.6918 111.107 25.8231 108.558 30.0858C106.068 34.3485 104.2 39.9433 102.955 46.8701C104.97 43.7915 106.809 41.2161 108.469 39.144C110.189 37.0719 111.671 35.2661 112.917 33.7269ZM145.993 74.6664C143.029 78.7515 139.056 80.794 134.075 80.794C130.043 80.794 126.811 79.9652 124.38 78.3075C122.008 76.5906 120.822 73.8967 120.822 70.2261C120.822 68.6868 121.029 67.2659 121.445 65.9634C121.919 64.6609 122.661 63.0624 123.668 61.1679L126.248 40.1209C128.086 38.7 130.577 37.9896 133.719 37.9896C136.387 37.9896 137.899 39.7657 138.255 43.3179C138.373 44.3836 138.433 45.6564 138.433 47.1366C138.433 48.5575 138.196 50.0672 137.722 51.6657C135.349 59.8358 134.193 65.3122 134.253 68.0948C134.253 70.2261 135.498 71.2918 137.988 71.2918C140.479 71.2918 142.317 70.4925 143.503 68.894C144.689 67.2955 145.697 65.3122 146.527 62.944C148.068 56.3724 149.492 50.9552 150.796 46.6925C152.16 42.4298 153.02 39.884 153.376 39.0552C153.969 37.6343 155.095 36.8943 156.756 36.8351C158.416 36.8943 159.987 38.0784 161.47 40.3873C162.952 42.637 163.693 44.3836 163.693 45.6269C163.575 49.7712 160.996 60.2206 155.955 76.9754C159.809 73.956 163.634 70.2557 167.429 65.8746C168.734 64.3353 169.831 63.0624 170.72 62.056C171.609 60.9903 172.321 60.4575 172.855 60.4575C173.685 60.4575 174.1 61.4048 174.1 63.2992C174.1 67.0291 171.995 71.3806 167.785 76.3537C163.634 81.3269 158.535 85.2047 152.486 87.9873C151.775 90.3555 151.004 92.6052 150.174 94.7366C149.344 96.8679 148.277 98.7328 146.972 100.331C144.126 103.765 139.797 105.482 133.986 105.482C130.072 105.482 126.722 104.357 123.935 102.107C121.207 99.858 119.844 97.0455 119.844 93.6709C119.844 91.7764 120.466 90.2667 121.711 89.1418C123.016 88.0169 124.765 87.0697 126.959 86.3C129.212 85.5895 131.822 84.9383 134.786 84.3463C137.751 83.8134 140.924 83.1326 144.303 82.3037C145.133 78.7515 145.697 76.2057 145.993 74.6664ZM133.897 98.644C136.684 98.644 139.204 96.217 141.457 91.3619C139.323 91.7764 137.425 92.0724 135.765 92.25C134.104 92.4871 132.681 92.694 131.495 92.8716C129.123 93.2269 127.967 93.8485 128.027 94.7366C128.027 95.8617 128.679 96.8084 129.983 97.5783C131.347 98.3483 132.652 98.7035 133.897 98.644Z" fill="#D62828"/>
</g>
</g>
</g>
</g>
<defs>
<filter id="filter0_d" x="-822" y="-122" width="1928" height="1088" filterUnits="userSpaceOnUse" color-interpolation-filters="sRGB">
<feFlood flood-opacity="0" result="BackgroundImageFix"/>
<feColorMatrix in="SourceAlpha" type="matrix" values="0 0 0 0 0 0 0 0 0 0 0 0 0 0 0 0 0 0 127 0"/>
<feOffset/>
<feGaussianBlur stdDeviation="2"/>
<feColorMatrix type="matrix" values="0 0 0 0 0 0 0 0 0 0 0 0 0 0 0 0 0 0 0.25 0"/>
<feBlend mode="normal" in2="BackgroundImageFix" result="effect1_dropShadow"/>
<feBlend mode="normal" in="SourceGraphic" in2="effect1_dropShadow" result="shape"/>
</filter>
<filter id="filter1_d" x="-254" y="-34" width="703" height="928" filterUnits="userSpaceOnUse" color-interpolation-filters="sRGB">
<feFlood flood-opacity="0" result="BackgroundImageFix"/>
<feColorMatrix in="SourceAlpha" type="matrix" values="0 0 0 0 0 0 0 0 0 0 0 0 0 0 0 0 0 0 127 0"/>
<feOffset/>
<feGaussianBlur stdDeviation="8.5"/>
<feColorMatrix type="matrix" values="0 0 0 0 0 0 0 0 0 0 0 0 0 0 0 0 0 0 0.25 0"/>
<feBlend mode="normal" in2="BackgroundImageFix" result="effect1_dropShadow"/>
<feBlend mode="normal" in="SourceGraphic" in2="effect1_dropShadow" result="shape"/>
</filter>
<filter id="filter2_d" x="-1" y="-7" width="197" height="139" filterUnits="userSpaceOnUse" color-interpolation-filters="sRGB">
<feFlood flood-opacity="0" result="BackgroundImageFix"/>
<feColorMatrix in="SourceAlpha" type="matrix" values="0 0 0 0 0 0 0 0 0 0 0 0 0 0 0 0 0 0 127 0"/>
<feOffset/>
<feGaussianBlur stdDeviation="5"/>
<feColorMatrix type="matrix" values="0 0 0 0 0 0 0 0 0 0 0 0 0 0 0 0 0 0 0.25 0"/>
<feBlend mode="normal" in2="BackgroundImageFix" result="effect1_dropShadow"/>
<feBlend mode="normal" in="SourceGraphic" in2="effect1_dropShadow" result="shape"/>
</filter>
<clipPath id="clip0">
<rect width="1920" height="1080" fill="white" transform="translate(-818 -118)"/>
</clipPath>
</defs>
</svg>
